<svg width="60" height="60" viewBox="0 0 60 60" fill="none" xmlns="http://www.w3.org/2000/svg">
<path d="M30 60C46.5685 60 60 46.5685 60 30C60 13.4315 46.5685 0 30 0C13.4315 0 0 13.4315 0 30C0 46.5685 13.4315 60 30 60Z" fill="#FFCC24"/>
<path d="M30 57.5001C45.1878 57.5001 57.5 45.188 57.5 30.0001C57.5 14.8123 45.1878 2.50012 30 2.50012C14.8122 2.50012 2.5 14.8123 2.5 30.0001C2.5 45.188 14.8122 57.5001 30 57.5001Z" fill="#F8E71C"/>
<path fill-rule="evenodd" clip-rule="evenodd" d="M13.3334 24.5585V44.0999C17.3967 42.6811 22.8273 41.9716 29.6253 41.9716C36.4232 41.9716 41.8538 42.6811 45.9171 44.0999V24.5585L36.8843 34.3292L29.6253 14.167L23.2764 34.3292L13.3334 24.5585Z" fill="#FF0000"/>
<path d="M29.75 19.5C31.8211 19.5 33.5 17.8211 33.5 15.75C33.5 13.6789 31.8211 12 29.75 12C27.6789 12 26 13.6789 26 15.75C26 17.8211 27.6789 19.5 29.75 19.5Z" fill="#FFD764" stroke="#FF0000"/>
<path d="M45.8334 27.8337C47.9044 27.8337 49.5834 26.1548 49.5834 24.0837C49.5834 22.0127 47.9044 20.3337 45.8334 20.3337C43.7623 20.3337 42.0834 22.0127 42.0834 24.0837C42.0834 26.1548 43.7623 27.8337 45.8334 27.8337Z" fill="#FFD764" stroke="#FF0000"/>
<path d="M12.5 27.8337C14.5711 27.8337 16.25 26.1548 16.25 24.0837C16.25 22.0127 14.5711 20.3337 12.5 20.3337C10.4289 20.3337 8.75 22.0127 8.75 24.0837C8.75 26.1548 10.4289 27.8337 12.5 27.8337Z" fill="#FFD764" stroke="#FF0000"/>
<ellipse cx="29.75" cy="44.375" rx="16.25" ry="3.125" fill="#FF0000" fill-opacity="0.35"/>
</svg>
