<svg width="24" height="24" viewBox="0 0 24 24" fill="none" xmlns="http://www.w3.org/2000/svg">
<ellipse cx="12" cy="12" rx="10" ry="10" fill="#072B4F"/>
<path d="M12 0C5.376 0 0 5.376 0 12C0 18.624 5.376 24 12 24C18.624 24 24 18.624 24 12C24 5.376 18.624 0 12 0ZM8.748 17.148L4.44 12.84C4.3289 12.7289 4.24077 12.597 4.18065 12.4519C4.12052 12.3067 4.08958 12.1511 4.08958 11.994C4.08958 11.8369 4.12052 11.6813 4.18065 11.5361C4.24077 11.391 4.3289 11.2591 4.44 11.148C4.5511 11.0369 4.68299 10.9488 4.82815 10.8886C4.9733 10.8285 5.12888 10.7976 5.286 10.7976C5.44312 10.7976 5.59869 10.8285 5.74385 10.8886C5.88901 10.9488 6.0209 11.0369 6.132 11.148L9.6 14.604L17.856 6.348C18.0804 6.12363 18.3847 5.99758 18.702 5.99758C19.0193 5.99758 19.3236 6.12363 19.548 6.348C19.7724 6.57237 19.8984 6.87669 19.8984 7.194C19.8984 7.51131 19.7724 7.81563 19.548 8.04L10.44 17.148C10.329 17.2592 10.1971 17.3475 10.0519 17.4077C9.90678 17.4679 9.75116 17.4989 9.594 17.4989C9.43684 17.4989 9.28122 17.4679 9.13605 17.4077C8.99088 17.3475 8.85902 17.2592 8.748 17.148Z" fill="#F8E71C"/>
</svg>
