<svg width="44" height="44" viewBox="0 0 44 44" fill="none" xmlns="http://www.w3.org/2000/svg">
<path d="M22 44C34.1503 44 44 34.1503 44 22C44 9.84974 34.1503 0 22 0C9.84974 0 0 9.84974 0 22C0 34.1503 9.84974 44 22 44Z" fill="#FFCC24"/>
<path d="M21.9987 42.1667C33.1364 42.1667 42.1654 33.1378 42.1654 22.0001C42.1654 10.8623 33.1364 1.83342 21.9987 1.83342C10.861 1.83342 1.83203 10.8623 1.83203 22.0001C1.83203 33.1378 10.861 42.1667 21.9987 42.1667Z" fill="#F8E71C"/>
<path fill-rule="evenodd" clip-rule="evenodd" d="M9.77734 18.0096V32.3399C12.7571 31.2995 16.7396 30.7792 21.7247 30.7792C26.7099 30.7792 30.6923 31.2995 33.6721 32.3399V18.0096L27.048 25.1748L21.7247 10.3892L17.0689 25.1748L9.77734 18.0096Z" fill="#FF0000"/>
<path d="M21.8164 14.3C23.3352 14.3 24.5664 13.0688 24.5664 11.55C24.5664 10.0312 23.3352 8.8 21.8164 8.8C20.2976 8.8 19.0664 10.0312 19.0664 11.55C19.0664 13.0688 20.2976 14.3 21.8164 14.3Z" fill="#FFD764" stroke="#FF0000"/>
<path d="M33.6133 20.4114C35.1321 20.4114 36.3633 19.1802 36.3633 17.6614C36.3633 16.1426 35.1321 14.9114 33.6133 14.9114C32.0945 14.9114 30.8633 16.1426 30.8633 17.6614C30.8633 19.1802 32.0945 20.4114 33.6133 20.4114Z" fill="#FFD764" stroke="#FF0000"/>
<path d="M9.16797 20.4114C10.6868 20.4114 11.918 19.1802 11.918 17.6614C11.918 16.1426 10.6868 14.9114 9.16797 14.9114C7.64919 14.9114 6.41797 16.1426 6.41797 17.6614C6.41797 19.1802 7.64919 20.4114 9.16797 20.4114Z" fill="#FFD764" stroke="#FF0000"/>
<ellipse cx="21.8151" cy="32.5417" rx="11.9167" ry="2.29167" fill="#FF0000" fill-opacity="0.35"/>
</svg>
