<svg width="145" height="52" viewBox="0 0 145 52" fill="none" xmlns="http://www.w3.org/2000/svg">
<rect width="145" height="52" rx="16" fill="#1CA566"/>
<path d="M60.496 19.544H62.576L66.88 31H64.88L63.84 28.056H59.232L58.192 31H56.192L60.496 19.544ZM63.232 26.408L62.032 23.032L61.584 21.688H61.488L61.04 23.032L59.84 26.408H63.232ZM67.9883 23.16H69.6683V24.168H69.7643C69.9776 23.8267 70.3029 23.5333 70.7403 23.288C71.1776 23.032 71.7003 22.904 72.3083 22.904C72.8096 22.904 73.2843 23.0107 73.7323 23.224C74.1909 23.4267 74.5909 23.7147 74.9323 24.088C75.2736 24.4613 75.5456 24.904 75.7483 25.416C75.9509 25.9173 76.0523 26.472 76.0523 27.08C76.0523 27.688 75.9509 28.248 75.7483 28.76C75.5456 29.2613 75.2736 29.6987 74.9323 30.072C74.5909 30.4453 74.1909 30.7387 73.7323 30.952C73.2843 31.1547 72.8096 31.256 72.3083 31.256C71.7003 31.256 71.1776 31.1333 70.7403 30.888C70.3029 30.632 69.9776 30.3333 69.7643 29.992H69.6683L69.7643 31.08V34.456H67.9883V23.16ZM71.9723 29.608C72.2709 29.608 72.5589 29.5493 72.8363 29.432C73.1243 29.3147 73.3696 29.1493 73.5723 28.936C73.7856 28.712 73.9563 28.4453 74.0843 28.136C74.2123 27.8267 74.2763 27.4747 74.2763 27.08C74.2763 26.6853 74.2123 26.3333 74.0843 26.024C73.9563 25.7147 73.7856 25.4533 73.5723 25.24C73.3696 25.016 73.1243 24.8453 72.8363 24.728C72.5589 24.6107 72.2709 24.552 71.9723 24.552C71.6629 24.552 71.3696 24.6107 71.0923 24.728C70.8149 24.8453 70.5696 25.0107 70.3563 25.224C70.1536 25.4373 69.9883 25.704 69.8603 26.024C69.7323 26.3333 69.6683 26.6853 69.6683 27.08C69.6683 27.4747 69.7323 27.832 69.8603 28.152C69.9883 28.4613 70.1536 28.7227 70.3563 28.936C70.5696 29.1493 70.8149 29.3147 71.0923 29.432C71.3696 29.5493 71.6629 29.608 71.9723 29.608ZM77.1758 23.16H78.8558V24.168H78.9518C79.1651 23.8267 79.4904 23.5333 79.9278 23.288C80.3651 23.032 80.8878 22.904 81.4958 22.904C81.9971 22.904 82.4718 23.0107 82.9198 23.224C83.3784 23.4267 83.7784 23.7147 84.1198 24.088C84.4611 24.4613 84.7331 24.904 84.9358 25.416C85.1384 25.9173 85.2398 26.472 85.2398 27.08C85.2398 27.688 85.1384 28.248 84.9358 28.76C84.7331 29.2613 84.4611 29.6987 84.1198 30.072C83.7784 30.4453 83.3784 30.7387 82.9198 30.952C82.4718 31.1547 81.9971 31.256 81.4958 31.256C80.8878 31.256 80.3651 31.1333 79.9278 30.888C79.4904 30.632 79.1651 30.3333 78.9518 29.992H78.8558L78.9518 31.08V34.456H77.1758V23.16ZM81.1598 29.608C81.4584 29.608 81.7464 29.5493 82.0238 29.432C82.3118 29.3147 82.5571 29.1493 82.7598 28.936C82.9731 28.712 83.1438 28.4453 83.2718 28.136C83.3998 27.8267 83.4638 27.4747 83.4638 27.08C83.4638 26.6853 83.3998 26.3333 83.2718 26.024C83.1438 25.7147 82.9731 25.4533 82.7598 25.24C82.5571 25.016 82.3118 24.8453 82.0238 24.728C81.7464 24.6107 81.4584 24.552 81.1598 24.552C80.8504 24.552 80.5571 24.6107 80.2798 24.728C80.0024 24.8453 79.7571 25.0107 79.5438 25.224C79.3411 25.4373 79.1758 25.704 79.0478 26.024C78.9198 26.3333 78.8558 26.6853 78.8558 27.08C78.8558 27.4747 78.9198 27.832 79.0478 28.152C79.1758 28.4613 79.3411 28.7227 79.5438 28.936C79.7571 29.1493 80.0024 29.3147 80.2798 29.432C80.5571 29.5493 80.8504 29.608 81.1598 29.608ZM93.2468 31.256C92.7881 31.256 92.3401 31.1867 91.9028 31.048C91.4761 30.92 91.0761 30.7227 90.7028 30.456C90.3401 30.1893 90.0201 29.8587 89.7428 29.464C89.4654 29.0693 89.2521 28.6107 89.1028 28.088L90.8307 27.384C90.9054 27.6827 91.0121 27.9653 91.1508 28.232C91.3001 28.488 91.4761 28.712 91.6788 28.904C91.8921 29.096 92.1268 29.2507 92.3828 29.368C92.6494 29.4747 92.9428 29.528 93.2628 29.528C93.5294 29.528 93.7854 29.496 94.0308 29.432C94.2761 29.3573 94.4894 29.2507 94.6708 29.112C94.8521 28.9733 94.9961 28.8027 95.1028 28.6C95.2201 28.3973 95.2788 28.1627 95.2788 27.896C95.2788 27.6613 95.2361 27.448 95.1508 27.256C95.0654 27.064 94.9321 26.888 94.7508 26.728C94.5694 26.568 94.3294 26.4187 94.0308 26.28C93.7321 26.1307 93.3748 25.9813 92.9588 25.832L92.2388 25.576C91.9294 25.4693 91.6094 25.3307 91.2788 25.16C90.9588 24.9787 90.6654 24.7653 90.3988 24.52C90.1428 24.264 89.9294 23.9653 89.7588 23.624C89.5988 23.2827 89.5188 22.8827 89.5188 22.424C89.5188 21.9973 89.6041 21.5973 89.7747 21.224C89.9561 20.84 90.2068 20.504 90.5268 20.216C90.8468 19.928 91.2254 19.704 91.6628 19.544C92.1108 19.3733 92.6014 19.288 93.1348 19.288C93.6894 19.288 94.1748 19.368 94.5908 19.528C95.0174 19.6773 95.3748 19.8693 95.6628 20.104C95.9508 20.3387 96.1801 20.6 96.3508 20.888C96.5321 21.1653 96.6654 21.4267 96.7508 21.672L95.1188 22.36C95.0654 22.2 94.9854 22.04 94.8788 21.88C94.7828 21.7093 94.6548 21.56 94.4948 21.432C94.3348 21.304 94.1428 21.1973 93.9188 21.112C93.7054 21.0267 93.4548 20.984 93.1668 20.984C92.9108 20.984 92.6708 21.0213 92.4468 21.096C92.2228 21.16 92.0254 21.256 91.8548 21.384C91.6948 21.512 91.5668 21.6613 91.4708 21.832C91.3748 22.0027 91.3268 22.1893 91.3268 22.392C91.3268 22.7973 91.4921 23.128 91.8228 23.384C92.1641 23.6293 92.6601 23.864 93.3108 24.088L94.0308 24.344C94.4788 24.4933 94.8894 24.6693 95.2628 24.872C95.6361 25.0747 95.9614 25.32 96.2388 25.608C96.5161 25.8853 96.7294 26.2107 96.8788 26.584C97.0388 26.9573 97.1188 27.3893 97.1188 27.88C97.1188 28.4773 96.9961 28.9893 96.7508 29.416C96.5161 29.832 96.2121 30.1787 95.8388 30.456C95.4654 30.7333 95.0494 30.936 94.5908 31.064C94.1321 31.192 93.6841 31.256 93.2468 31.256ZM99.1038 24.728H97.7278V23.16H99.1038V20.76H100.88V23.16H102.816V24.728H100.88V28.216C100.88 28.408 100.901 28.584 100.944 28.744C100.986 28.904 101.05 29.0373 101.136 29.144C101.317 29.3467 101.546 29.448 101.824 29.448C101.994 29.448 102.128 29.4373 102.224 29.416C102.32 29.384 102.421 29.3413 102.528 29.288L103.072 30.856C102.848 30.9413 102.613 31.0053 102.368 31.048C102.122 31.1013 101.845 31.128 101.536 31.128C101.162 31.128 100.832 31.0693 100.544 30.952C100.256 30.8347 100.005 30.6747 99.7918 30.472C99.3331 30.0133 99.1038 29.3893 99.1038 28.6V24.728ZM107.857 22.904C108.454 22.904 109.003 23.0107 109.505 23.224C110.006 23.4267 110.438 23.7147 110.801 24.088C111.163 24.4613 111.446 24.904 111.649 25.416C111.851 25.928 111.953 26.4827 111.953 27.08C111.953 27.6773 111.851 28.232 111.649 28.744C111.446 29.256 111.163 29.6987 110.801 30.072C110.438 30.4453 110.006 30.7387 109.505 30.952C109.003 31.1547 108.454 31.256 107.857 31.256C107.259 31.256 106.71 31.1547 106.209 30.952C105.707 30.7387 105.275 30.4453 104.913 30.072C104.55 29.6987 104.267 29.256 104.065 28.744C103.862 28.232 103.761 27.6773 103.761 27.08C103.761 26.4827 103.862 25.928 104.065 25.416C104.267 24.904 104.55 24.4613 104.913 24.088C105.275 23.7147 105.707 23.4267 106.209 23.224C106.71 23.0107 107.259 22.904 107.857 22.904ZM107.857 29.608C108.155 29.608 108.443 29.5493 108.721 29.432C108.998 29.3147 109.243 29.1493 109.457 28.936C109.681 28.7227 109.857 28.4613 109.985 28.152C110.113 27.832 110.177 27.4747 110.177 27.08C110.177 26.6853 110.113 26.3333 109.985 26.024C109.857 25.704 109.681 25.4373 109.457 25.224C109.243 25.0107 108.998 24.8453 108.721 24.728C108.443 24.6107 108.155 24.552 107.857 24.552C107.558 24.552 107.27 24.6107 106.993 24.728C106.715 24.8453 106.465 25.0107 106.241 25.224C106.027 25.4373 105.857 25.704 105.729 26.024C105.601 26.3333 105.537 26.6853 105.537 27.08C105.537 27.4747 105.601 27.832 105.729 28.152C105.857 28.4613 106.027 28.7227 106.241 28.936C106.465 29.1493 106.715 29.3147 106.993 29.432C107.27 29.5493 107.558 29.608 107.857 29.608ZM113.146 23.16H114.826V24.344H114.922C115.018 24.1413 115.146 23.9547 115.306 23.784C115.477 23.6027 115.663 23.4533 115.866 23.336C116.079 23.208 116.298 23.112 116.522 23.048C116.757 22.9733 116.981 22.936 117.194 22.936C117.45 22.936 117.669 22.9573 117.85 23C118.031 23.0427 118.197 23.1013 118.346 23.176L117.834 24.824C117.717 24.7707 117.583 24.7333 117.434 24.712C117.295 24.68 117.125 24.664 116.922 24.664C116.634 24.664 116.367 24.7227 116.122 24.84C115.887 24.9573 115.679 25.1173 115.498 25.32C115.317 25.5227 115.173 25.7627 115.066 26.04C114.97 26.3173 114.922 26.6107 114.922 26.92V31H113.146V23.16ZM126.082 29.128C125.751 29.736 125.282 30.2427 124.674 30.648C124.066 31.0533 123.319 31.256 122.434 31.256C121.847 31.256 121.303 31.1547 120.802 30.952C120.311 30.7387 119.885 30.4453 119.522 30.072C119.159 29.6987 118.877 29.2613 118.674 28.76C118.471 28.248 118.37 27.688 118.37 27.08C118.37 26.5147 118.466 25.9813 118.658 25.48C118.85 24.968 119.117 24.5253 119.458 24.152C119.81 23.768 120.231 23.464 120.722 23.24C121.213 23.016 121.757 22.904 122.354 22.904C122.962 22.904 123.501 23.0053 123.97 23.208C124.45 23.4107 124.855 23.6933 125.186 24.056C125.517 24.4187 125.767 24.856 125.938 25.368C126.119 25.88 126.21 26.44 126.21 27.048C126.21 27.1013 126.21 27.1493 126.21 27.192C126.199 27.2453 126.194 27.2933 126.194 27.336C126.183 27.3787 126.178 27.4213 126.178 27.464H120.146C120.178 27.8373 120.269 28.1627 120.418 28.44C120.567 28.7173 120.749 28.9467 120.962 29.128C121.186 29.3093 121.431 29.4427 121.698 29.528C121.965 29.6133 122.226 29.656 122.482 29.656C122.994 29.656 123.415 29.5333 123.746 29.288C124.077 29.0427 124.349 28.7387 124.562 28.376L126.082 29.128ZM124.434 26.104C124.413 25.944 124.359 25.768 124.274 25.576C124.199 25.3733 124.077 25.192 123.906 25.032C123.746 24.8613 123.533 24.7173 123.266 24.6C123.01 24.4827 122.695 24.424 122.322 24.424C121.81 24.424 121.367 24.5787 120.994 24.888C120.631 25.1867 120.386 25.592 120.258 26.104H124.434Z" fill="white"/>
<path d="M41.8432 20.6861C41.7286 20.7529 39.0006 22.1637 39.0006 25.2918C39.1292 28.8591 42.4432 30.1102 42.5 30.1102C42.4432 30.177 41.9997 31.8144 40.686 33.5308C39.6435 35.0093 38.4863 36.5 36.7292 36.5C35.0577 36.5 34.4577 35.5146 32.5292 35.5146C30.458 35.5146 29.872 36.5 28.2863 36.5C26.5292 36.5 25.2863 34.9295 24.1869 33.4648C22.7586 31.5479 21.5447 28.5396 21.5018 25.6512C21.4729 24.1206 21.7878 22.616 22.5872 21.3381C23.7155 19.554 25.7298 18.3429 27.9295 18.3029C29.6149 18.25 31.1149 19.3812 32.1435 19.3812C33.1292 19.3812 34.972 18.3029 37.0571 18.3029C37.9571 18.3038 40.3571 18.5564 41.8432 20.6861ZM32.0009 17.9973C31.7009 16.5996 32.5292 15.2018 33.3006 14.3102C34.2863 13.2319 35.8432 12.5 37.1857 12.5C37.2714 13.8978 36.7282 15.2686 35.7574 16.267C34.8863 17.3453 33.3863 18.1571 32.0009 17.9973Z" fill="white"/>
</svg>
