<svg width="120" height="120" viewBox="0 0 120 120" fill="none" xmlns="http://www.w3.org/2000/svg">
<circle cx="60" cy="60" r="60" fill="#F8E71C"/>
<path d="M75.5 47H69.6883L66.3333 43.3333H55.3333V47H64.72L68.075 50.6666H75.5V72.6666H46.1667V56.1666H42.5V72.6666C42.5 74.6833 44.15 76.3333 46.1667 76.3333H75.5C77.5167 76.3333 79.1667 74.6833 79.1667 72.6666V50.6666C79.1667 48.65 77.5167 47 75.5 47ZM51.6667 61.6666C51.6667 66.7266 55.7733 70.8333 60.8333 70.8333C65.8933 70.8333 70 66.7266 70 61.6666C70 56.6066 65.8933 52.5 60.8333 52.5C55.7733 52.5 51.6667 56.6066 51.6667 61.6666ZM60.8333 56.1666C63.8583 56.1666 66.3333 58.6416 66.3333 61.6666C66.3333 64.6916 63.8583 67.1666 60.8333 67.1666C57.8083 67.1666 55.3333 64.6916 55.3333 61.6666C55.3333 58.6416 57.8083 56.1666 60.8333 56.1666ZM46.1667 47H51.6667V43.3333H46.1667V37.8333H42.5V43.3333H37V47H42.5V52.5H46.1667V47Z" fill="#072B4F"/>
</svg>
