<svg width="21" height="20" viewBox="0 0 21 20" fill="none" xmlns="http://www.w3.org/2000/svg">
<path d="M4.67101 2.257C8.59901 -0.961999 14.404 -0.737999 18.071 2.929C21.976 6.834 21.976 13.166 18.071 17.071C14.166 20.976 7.83401 20.976 3.92901 17.071C2.73064 15.8743 1.85609 14.3926 1.38747 12.7651C0.918858 11.1376 0.871557 9.41777 1.25001 7.767L1.32701 7.454L3.26101 7.964C2.78156 9.78626 2.96071 11.7193 3.76689 13.4224C4.57308 15.1255 5.95455 16.4894 7.66785 17.2737C9.38115 18.058 11.3163 18.2123 13.1323 17.7096C14.9482 17.2068 16.5285 16.0792 17.5944 14.5254C18.6604 12.9717 19.1438 11.0915 18.9593 9.21626C18.7747 7.34103 17.9342 5.59112 16.5859 4.2749C15.2375 2.95869 13.4678 2.16067 11.5887 2.02147C9.70956 1.88227 7.8416 2.41083 6.31401 3.514L6.09301 3.68L7.11001 4.697L2.51401 5.757L3.57401 1.161L4.67001 2.257H4.67101ZM12 4V6H14.5V8H9.00001C8.87507 7.99977 8.75456 8.04633 8.66223 8.13051C8.5699 8.21469 8.51243 8.33039 8.50114 8.45482C8.48985 8.57926 8.52556 8.70341 8.60123 8.80283C8.67691 8.90226 8.78707 8.96974 8.91001 8.992L9.00001 9H13C13.6631 9 14.2989 9.26339 14.7678 9.73223C15.2366 10.2011 15.5 10.837 15.5 11.5C15.5 12.163 15.2366 12.7989 14.7678 13.2678C14.2989 13.7366 13.6631 14 13 14H12V16H10V14H7.50001V12H13C13.125 12.0002 13.2455 11.9537 13.3378 11.8695C13.4301 11.7853 13.4876 11.6696 13.4989 11.5452C13.5102 11.4207 13.4745 11.2966 13.3988 11.1972C13.3231 11.0977 13.213 11.0303 13.09 11.008L13 11H9.00001C8.33697 11 7.70109 10.7366 7.23225 10.2678C6.76341 9.79893 6.50001 9.16304 6.50001 8.5C6.50001 7.83696 6.76341 7.20108 7.23225 6.73223C7.70109 6.26339 8.33697 6 9.00001 6H10V4H12Z" fill="#072B4F"/>
</svg>
