<svg width="159" height="52" viewBox="0 0 159 52" fill="none" xmlns="http://www.w3.org/2000/svg">
<rect width="159" height="52" rx="16" fill="#1CA566"/>
<mask id="mask0_924_1049" style="mask-type:alpha" maskUnits="userSpaceOnUse" x="24" y="13" width="24" height="26">
<path d="M47.0484 24.4004C48.3172 25.0986 48.3172 26.9014 47.0484 27.5996L26.7563 38.7659C25.5205 39.4459 24 38.5634 24 37.1663L24 14.8337C24 13.4366 25.5205 12.5541 26.7563 13.2342L47.0484 24.4004Z" fill="#C4C4C4"/>
</mask>
<g mask="url(#mask0_924_1049)">
<path d="M24.6347 38.5466L37.2923 25.8179L24.8432 13.2988C24.3465 13.6172 24 14.1669 24 14.8339V37.1664C24 37.7355 24.2522 38.2191 24.6347 38.5466Z" fill="url(#paint0_linear_924_1049)"/>
<path d="M47.0484 24.4003C48.3172 25.0985 48.3172 26.9012 47.0484 27.5994L41.9291 30.4165L37.2924 25.8175L41.6926 21.4531L47.0484 24.4003Z" fill="url(#paint1_linear_924_1049)"/>
<path d="M41.9292 30.4163L37.2924 25.8174L24.6348 38.5461C25.1914 39.0228 26.0239 39.1686 26.7564 38.7656L41.9292 30.4163Z" fill="url(#paint2_linear_924_1049)"/>
<path d="M24.8433 13.2986L37.2924 25.8177L41.6927 21.4533L26.7563 13.2342C26.1105 12.8788 25.3869 12.9501 24.8433 13.2986Z" fill="url(#paint3_linear_924_1049)"/>
</g>
<path d="M62.576 24.792H68.16C68.1813 24.9307 68.2027 25.08 68.224 25.24C68.2453 25.3893 68.256 25.5493 68.256 25.72C68.256 26.4027 68.1493 27.08 67.936 27.752C67.7227 28.424 67.36 29.0213 66.848 29.544C66.3253 30.088 65.712 30.5093 65.008 30.808C64.304 31.1067 63.4987 31.256 62.592 31.256C61.7707 31.256 60.992 31.1067 60.256 30.808C59.5307 30.5093 58.896 30.0933 58.352 29.56C57.808 29.0267 57.376 28.3973 57.056 27.672C56.7467 26.936 56.592 26.136 56.592 25.272C56.592 24.408 56.7467 23.6133 57.056 22.888C57.376 22.152 57.808 21.5173 58.352 20.984C58.896 20.4507 59.5307 20.0347 60.256 19.736C60.992 19.4373 61.7707 19.288 62.592 19.288C63.4667 19.288 64.272 19.4427 65.008 19.752C65.7547 20.0613 66.3787 20.4933 66.88 21.048L65.616 22.312C65.2427 21.896 64.8 21.576 64.288 21.352C63.7867 21.128 63.216 21.016 62.576 21.016C62.032 21.016 61.5093 21.1173 61.008 21.32C60.5067 21.5227 60.064 21.8107 59.68 22.184C59.296 22.5467 58.992 22.9893 58.768 23.512C58.544 24.0347 58.432 24.6213 58.432 25.272C58.432 25.9227 58.544 26.5093 58.768 27.032C58.992 27.5547 59.296 28.0027 59.68 28.376C60.064 28.7387 60.5067 29.0213 61.008 29.224C61.5093 29.4267 62.0373 29.528 62.592 29.528C63.328 29.528 63.92 29.416 64.368 29.192C64.8267 28.968 65.2107 28.7067 65.52 28.408C65.744 28.1947 65.9413 27.9173 66.112 27.576C66.2827 27.224 66.3947 26.84 66.448 26.424H62.576V24.792ZM73.3565 22.904C73.9538 22.904 74.5032 23.0107 75.0045 23.224C75.5058 23.4267 75.9378 23.7147 76.3005 24.088C76.6632 24.4613 76.9458 24.904 77.1485 25.416C77.3512 25.928 77.4525 26.4827 77.4525 27.08C77.4525 27.6773 77.3512 28.232 77.1485 28.744C76.9458 29.256 76.6632 29.6987 76.3005 30.072C75.9378 30.4453 75.5058 30.7387 75.0045 30.952C74.5032 31.1547 73.9538 31.256 73.3565 31.256C72.7592 31.256 72.2098 31.1547 71.7085 30.952C71.2072 30.7387 70.7752 30.4453 70.4125 30.072C70.0498 29.6987 69.7672 29.256 69.5645 28.744C69.3618 28.232 69.2605 27.6773 69.2605 27.08C69.2605 26.4827 69.3618 25.928 69.5645 25.416C69.7672 24.904 70.0498 24.4613 70.4125 24.088C70.7752 23.7147 71.2072 23.4267 71.7085 23.224C72.2098 23.0107 72.7592 22.904 73.3565 22.904ZM73.3565 29.608C73.6552 29.608 73.9432 29.5493 74.2205 29.432C74.4978 29.3147 74.7432 29.1493 74.9565 28.936C75.1805 28.7227 75.3565 28.4613 75.4845 28.152C75.6125 27.832 75.6765 27.4747 75.6765 27.08C75.6765 26.6853 75.6125 26.3333 75.4845 26.024C75.3565 25.704 75.1805 25.4373 74.9565 25.224C74.7432 25.0107 74.4978 24.8453 74.2205 24.728C73.9432 24.6107 73.6552 24.552 73.3565 24.552C73.0578 24.552 72.7698 24.6107 72.4925 24.728C72.2152 24.8453 71.9645 25.0107 71.7405 25.224C71.5272 25.4373 71.3565 25.704 71.2285 26.024C71.1005 26.3333 71.0365 26.6853 71.0365 27.08C71.0365 27.4747 71.1005 27.832 71.2285 28.152C71.3565 28.4613 71.5272 28.7227 71.7405 28.936C71.9645 29.1493 72.2152 29.3147 72.4925 29.432C72.7698 29.5493 73.0578 29.608 73.3565 29.608ZM82.4503 22.904C83.0476 22.904 83.5969 23.0107 84.0983 23.224C84.5996 23.4267 85.0316 23.7147 85.3943 24.088C85.7569 24.4613 86.0396 24.904 86.2423 25.416C86.4449 25.928 86.5463 26.4827 86.5463 27.08C86.5463 27.6773 86.4449 28.232 86.2423 28.744C86.0396 29.256 85.7569 29.6987 85.3943 30.072C85.0316 30.4453 84.5996 30.7387 84.0983 30.952C83.5969 31.1547 83.0476 31.256 82.4503 31.256C81.8529 31.256 81.3036 31.1547 80.8023 30.952C80.3009 30.7387 79.8689 30.4453 79.5063 30.072C79.1436 29.6987 78.8609 29.256 78.6583 28.744C78.4556 28.232 78.3543 27.6773 78.3543 27.08C78.3543 26.4827 78.4556 25.928 78.6583 25.416C78.8609 24.904 79.1436 24.4613 79.5063 24.088C79.8689 23.7147 80.3009 23.4267 80.8023 23.224C81.3036 23.0107 81.8529 22.904 82.4503 22.904ZM82.4503 29.608C82.7489 29.608 83.0369 29.5493 83.3143 29.432C83.5916 29.3147 83.8369 29.1493 84.0503 28.936C84.2743 28.7227 84.4503 28.4613 84.5783 28.152C84.7063 27.832 84.7703 27.4747 84.7703 27.08C84.7703 26.6853 84.7063 26.3333 84.5783 26.024C84.4503 25.704 84.2743 25.4373 84.0503 25.224C83.8369 25.0107 83.5916 24.8453 83.3143 24.728C83.0369 24.6107 82.7489 24.552 82.4503 24.552C82.1516 24.552 81.8636 24.6107 81.5863 24.728C81.3089 24.8453 81.0583 25.0107 80.8343 25.224C80.6209 25.4373 80.4503 25.704 80.3223 26.024C80.1943 26.3333 80.1303 26.6853 80.1303 27.08C80.1303 27.4747 80.1943 27.832 80.3223 28.152C80.4503 28.4613 80.6209 28.7227 80.8343 28.936C81.0583 29.1493 81.3089 29.3147 81.5863 29.432C81.8636 29.5493 82.1516 29.608 82.4503 29.608ZM91.448 34.712C90.904 34.712 90.4187 34.6373 89.992 34.488C89.576 34.3493 89.2133 34.168 88.904 33.944C88.5947 33.72 88.3387 33.4693 88.136 33.192C87.944 32.9147 87.8 32.648 87.704 32.392L89.4 31.704C89.5493 32.12 89.8053 32.456 90.168 32.712C90.5307 32.9787 90.9573 33.112 91.448 33.112C92.184 33.112 92.7547 32.888 93.16 32.44C93.576 31.992 93.784 31.3733 93.784 30.584V29.944H93.688C93.4427 30.296 93.1013 30.5893 92.664 30.824C92.2373 31.0587 91.736 31.176 91.16 31.176C90.68 31.176 90.216 31.0747 89.768 30.872C89.32 30.6693 88.92 30.3867 88.568 30.024C88.2267 29.6613 87.9547 29.224 87.752 28.712C87.5493 28.2 87.448 27.64 87.448 27.032C87.448 26.424 87.5493 25.8693 87.752 25.368C87.9547 24.856 88.2267 24.4187 88.568 24.056C88.92 23.6933 89.32 23.4107 89.768 23.208C90.216 23.0053 90.68 22.904 91.16 22.904C91.736 22.904 92.2373 23.0213 92.664 23.256C93.1013 23.4907 93.4427 23.784 93.688 24.136H93.784V23.16H95.496V30.552C95.496 31.224 95.3893 31.816 95.176 32.328C94.9733 32.8507 94.6907 33.288 94.328 33.64C93.976 33.992 93.5493 34.2587 93.048 34.44C92.5573 34.6213 92.024 34.712 91.448 34.712ZM91.512 29.528C91.8 29.528 92.0827 29.4747 92.36 29.368C92.6373 29.2613 92.8773 29.1013 93.08 28.888C93.2933 28.6747 93.464 28.4133 93.592 28.104C93.72 27.7947 93.784 27.4373 93.784 27.032C93.784 26.6373 93.72 26.2853 93.592 25.976C93.464 25.656 93.2933 25.3947 93.08 25.192C92.8773 24.9787 92.6373 24.8187 92.36 24.712C92.0827 24.5947 91.8 24.536 91.512 24.536C91.2133 24.536 90.9253 24.5947 90.648 24.712C90.3813 24.8187 90.1413 24.9787 89.928 25.192C89.7147 25.4053 89.544 25.6667 89.416 25.976C89.288 26.2853 89.224 26.6373 89.224 27.032C89.224 27.4267 89.288 27.7787 89.416 28.088C89.544 28.3973 89.7147 28.6587 89.928 28.872C90.1413 29.0853 90.3813 29.2507 90.648 29.368C90.9253 29.4747 91.2133 29.528 91.512 29.528ZM97.2866 31V19.544H99.0626V31H97.2866ZM108.035 29.128C107.704 29.736 107.235 30.2427 106.627 30.648C106.019 31.0533 105.272 31.256 104.387 31.256C103.8 31.256 103.256 31.1547 102.755 30.952C102.264 30.7387 101.838 30.4453 101.475 30.072C101.112 29.6987 100.83 29.2613 100.627 28.76C100.424 28.248 100.323 27.688 100.323 27.08C100.323 26.5147 100.419 25.9813 100.611 25.48C100.803 24.968 101.07 24.5253 101.411 24.152C101.763 23.768 102.184 23.464 102.675 23.24C103.166 23.016 103.71 22.904 104.307 22.904C104.915 22.904 105.454 23.0053 105.923 23.208C106.403 23.4107 106.808 23.6933 107.139 24.056C107.47 24.4187 107.72 24.856 107.891 25.368C108.072 25.88 108.163 26.44 108.163 27.048C108.163 27.1013 108.163 27.1493 108.163 27.192C108.152 27.2453 108.147 27.2933 108.147 27.336C108.136 27.3787 108.131 27.4213 108.131 27.464H102.099C102.131 27.8373 102.222 28.1627 102.371 28.44C102.52 28.7173 102.702 28.9467 102.915 29.128C103.139 29.3093 103.384 29.4427 103.651 29.528C103.918 29.6133 104.179 29.656 104.435 29.656C104.947 29.656 105.368 29.5333 105.699 29.288C106.03 29.0427 106.302 28.7387 106.515 28.376L108.035 29.128ZM106.387 26.104C106.366 25.944 106.312 25.768 106.227 25.576C106.152 25.3733 106.03 25.192 105.859 25.032C105.699 24.8613 105.486 24.7173 105.219 24.6C104.963 24.4827 104.648 24.424 104.275 24.424C103.763 24.424 103.32 24.5787 102.947 24.888C102.584 25.1867 102.339 25.592 102.211 26.104H106.387ZM113.277 31V19.544H117.245C117.757 19.544 118.237 19.6293 118.685 19.8C119.144 19.9707 119.544 20.2107 119.885 20.52C120.226 20.8293 120.493 21.2027 120.685 21.64C120.888 22.0667 120.989 22.5413 120.989 23.064C120.989 23.576 120.888 24.0507 120.685 24.488C120.493 24.9147 120.226 25.2827 119.885 25.592C119.544 25.9013 119.144 26.1413 118.685 26.312C118.237 26.4827 117.757 26.568 117.245 26.568H115.085V31H113.277ZM117.293 24.84C117.592 24.84 117.858 24.792 118.093 24.696C118.328 24.5893 118.525 24.4507 118.685 24.28C118.845 24.1093 118.968 23.9173 119.053 23.704C119.138 23.4907 119.181 23.2773 119.181 23.064C119.181 22.84 119.138 22.6213 119.053 22.408C118.968 22.1947 118.845 22.008 118.685 21.848C118.525 21.6773 118.328 21.5387 118.093 21.432C117.858 21.3253 117.592 21.272 117.293 21.272H115.085V24.84H117.293ZM122.349 31V19.544H124.125V31H122.349ZM130.794 30.04H130.698C130.463 30.3493 130.159 30.632 129.786 30.888C129.412 31.1333 128.938 31.256 128.362 31.256C127.946 31.256 127.556 31.1867 127.194 31.048C126.831 30.92 126.516 30.7387 126.25 30.504C125.983 30.2587 125.77 29.976 125.61 29.656C125.46 29.3253 125.386 28.9627 125.386 28.568C125.386 28.152 125.466 27.7787 125.626 27.448C125.796 27.1173 126.026 26.84 126.314 26.616C126.612 26.392 126.964 26.2213 127.37 26.104C127.775 25.976 128.212 25.912 128.682 25.912C129.204 25.912 129.642 25.9653 129.994 26.072C130.346 26.168 130.612 26.2587 130.794 26.344V26.04C130.794 25.8053 130.74 25.5867 130.634 25.384C130.538 25.1813 130.399 25.0107 130.218 24.872C130.047 24.7227 129.85 24.6107 129.626 24.536C129.402 24.4507 129.167 24.408 128.922 24.408C128.527 24.408 128.17 24.488 127.85 24.648C127.54 24.7973 127.263 25.0427 127.018 25.384L125.61 24.456C125.983 23.944 126.447 23.56 127.002 23.304C127.556 23.0373 128.186 22.904 128.89 22.904C130.052 22.904 130.948 23.192 131.578 23.768C132.218 24.344 132.538 25.1653 132.538 26.232V31H130.794V30.04ZM130.794 27.736C130.559 27.5973 130.298 27.4853 130.01 27.4C129.722 27.3147 129.391 27.272 129.018 27.272C128.463 27.272 128.02 27.4 127.69 27.656C127.359 27.912 127.194 28.2213 127.194 28.584C127.194 28.776 127.236 28.9467 127.322 29.096C127.407 29.2347 127.514 29.3573 127.642 29.464C127.78 29.5707 127.935 29.6507 128.106 29.704C128.287 29.7573 128.468 29.784 128.65 29.784C128.938 29.784 129.21 29.7307 129.466 29.624C129.732 29.5067 129.962 29.3573 130.154 29.176C130.346 28.984 130.5 28.7653 130.618 28.52C130.735 28.2747 130.794 28.0133 130.794 27.736ZM136.484 30.552L133.22 23.16H135.204L137.364 28.36H137.444L139.54 23.16H141.508L136.596 34.456H134.708L136.484 30.552Z" fill="white"/>
<defs>
<linearGradient id="paint0_linear_924_1049" x1="32.6769" y1="20.874" x2="24.0711" y2="29.5506" gradientUnits="userSpaceOnUse">
<stop stop-color="#00C3FF"/>
<stop offset="1" stop-color="#1BE2FA"/>
</linearGradient>
<linearGradient id="paint1_linear_924_1049" x1="37.2924" y1="25.8176" x2="48.7385" y2="25.8176" gradientUnits="userSpaceOnUse">
<stop stop-color="#FFCE00"/>
<stop offset="1" stop-color="#FFEA00"/>
</linearGradient>
<linearGradient id="paint2_linear_924_1049" x1="24.3693" y1="40.0999" x2="39.595" y2="27.8932" gradientUnits="userSpaceOnUse">
<stop stop-color="#DE2453"/>
<stop offset="1" stop-color="#FE3944"/>
</linearGradient>
<linearGradient id="paint3_linear_924_1049" x1="25.1077" y1="11.9014" x2="39.5975" y2="23.7365" gradientUnits="userSpaceOnUse">
<stop stop-color="#11D574"/>
<stop offset="1" stop-color="#01F176"/>
</linearGradient>
</defs>
</svg>
