<svg width="519" height="348" viewBox="0 0 519 348" fill="none" xmlns="http://www.w3.org/2000/svg">
<rect width="519" height="348" rx="8" fill="#F3F4F6"/>
<rect x="238" y="320" width="8" height="8" rx="4" fill="#56CCF2"/>
<path d="M101.166 326.13H102.616C103.309 326.13 103.882 325.9 104.336 325.44C104.796 324.98 105.026 324.323 105.026 323.47C105.026 322.61 104.799 321.947 104.346 321.48C103.899 321.013 103.329 320.78 102.636 320.78H101.166V326.13ZM102.646 327H100.186V319.91H102.666C103.619 319.91 104.419 320.227 105.066 320.86C105.712 321.487 106.036 322.357 106.036 323.47C106.036 324.577 105.709 325.443 105.056 326.07C104.402 326.69 103.599 327 102.646 327ZM107.893 324.1H110.523C110.51 323.74 110.39 323.447 110.163 323.22C109.936 322.987 109.616 322.87 109.203 322.87C108.83 322.87 108.523 322.993 108.283 323.24C108.043 323.48 107.913 323.767 107.893 324.1ZM110.663 325.35L111.473 325.63C111.333 326.077 111.073 326.443 110.693 326.73C110.313 327.01 109.853 327.15 109.313 327.15C108.64 327.15 108.066 326.92 107.593 326.46C107.126 325.993 106.893 325.367 106.893 324.58C106.893 323.847 107.12 323.24 107.573 322.76C108.026 322.28 108.566 322.04 109.193 322.04C109.92 322.04 110.486 322.27 110.893 322.73C111.3 323.183 111.503 323.793 111.503 324.56C111.503 324.68 111.496 324.78 111.483 324.86H107.863C107.87 325.287 108.01 325.637 108.283 325.91C108.563 326.183 108.906 326.32 109.313 326.32C110 326.32 110.45 325.997 110.663 325.35ZM113.633 328.9H112.703V322.19H113.613V322.94C113.753 322.687 113.963 322.48 114.243 322.32C114.523 322.16 114.849 322.08 115.223 322.08C115.916 322.08 116.456 322.317 116.843 322.79C117.236 323.263 117.433 323.863 117.433 324.59C117.433 325.323 117.229 325.93 116.823 326.41C116.423 326.89 115.879 327.13 115.193 327.13C114.839 327.13 114.526 327.057 114.253 326.91C113.979 326.763 113.773 326.577 113.633 326.35V328.9ZM116.473 324.59C116.473 324.103 116.343 323.703 116.083 323.39C115.829 323.07 115.486 322.91 115.053 322.91C114.626 322.91 114.279 323.07 114.013 323.39C113.753 323.703 113.623 324.103 113.623 324.59C113.623 325.09 113.753 325.5 114.013 325.82C114.279 326.133 114.626 326.29 115.053 326.29C115.479 326.29 115.823 326.133 116.083 325.82C116.343 325.5 116.473 325.09 116.473 324.59ZM121.301 322.14V323.14C121.161 323.12 121.024 323.11 120.891 323.11C120.011 323.11 119.571 323.603 119.571 324.59V327H118.631V322.19H119.551V323.03C119.844 322.417 120.324 322.11 120.991 322.11C121.097 322.11 121.201 322.12 121.301 322.14ZM122.864 324.1H125.494C125.48 323.74 125.36 323.447 125.134 323.22C124.907 322.987 124.587 322.87 124.174 322.87C123.8 322.87 123.494 322.993 123.254 323.24C123.014 323.48 122.884 323.767 122.864 324.1ZM125.634 325.35L126.444 325.63C126.304 326.077 126.044 326.443 125.664 326.73C125.284 327.01 124.824 327.15 124.284 327.15C123.61 327.15 123.037 326.92 122.564 326.46C122.097 325.993 121.864 325.367 121.864 324.58C121.864 323.847 122.09 323.24 122.544 322.76C122.997 322.28 123.537 322.04 124.164 322.04C124.89 322.04 125.457 322.27 125.864 322.73C126.27 323.183 126.474 323.793 126.474 324.56C126.474 324.68 126.467 324.78 126.454 324.86H122.834C122.84 325.287 122.98 325.637 123.254 325.91C123.534 326.183 123.877 326.32 124.284 326.32C124.97 326.32 125.42 325.997 125.634 325.35ZM127.224 325.75L128.074 325.45C128.107 325.71 128.22 325.927 128.414 326.1C128.607 326.267 128.867 326.35 129.194 326.35C129.447 326.35 129.647 326.29 129.794 326.17C129.94 326.043 130.014 325.89 130.014 325.71C130.014 325.39 129.807 325.183 129.394 325.09L128.574 324.91C128.2 324.83 127.907 324.67 127.694 324.43C127.48 324.19 127.374 323.9 127.374 323.56C127.374 323.147 127.54 322.79 127.874 322.49C128.214 322.19 128.617 322.04 129.084 322.04C129.39 322.04 129.664 322.087 129.904 322.18C130.144 322.267 130.33 322.383 130.464 322.53C130.597 322.677 130.697 322.813 130.764 322.94C130.83 323.067 130.88 323.197 130.914 323.33L130.084 323.64C130.07 323.56 130.047 323.483 130.014 323.41C129.98 323.33 129.927 323.243 129.854 323.15C129.787 323.057 129.687 322.983 129.554 322.93C129.42 322.87 129.264 322.84 129.084 322.84C128.85 322.84 128.657 322.903 128.504 323.03C128.357 323.157 128.284 323.307 128.284 323.48C128.284 323.787 128.467 323.98 128.834 324.06L129.614 324.23C130.04 324.323 130.367 324.497 130.594 324.75C130.827 324.997 130.944 325.3 130.944 325.66C130.944 326.04 130.787 326.383 130.474 326.69C130.167 326.997 129.737 327.15 129.184 327.15C128.59 327.15 128.127 327.003 127.794 326.71C127.46 326.41 127.27 326.09 127.224 325.75ZM131.745 325.75L132.595 325.45C132.628 325.71 132.742 325.927 132.935 326.1C133.128 326.267 133.388 326.35 133.715 326.35C133.968 326.35 134.168 326.29 134.315 326.17C134.462 326.043 134.535 325.89 134.535 325.71C134.535 325.39 134.328 325.183 133.915 325.09L133.095 324.91C132.722 324.83 132.428 324.67 132.215 324.43C132.002 324.19 131.895 323.9 131.895 323.56C131.895 323.147 132.062 322.79 132.395 322.49C132.735 322.19 133.138 322.04 133.605 322.04C133.912 322.04 134.185 322.087 134.425 322.18C134.665 322.267 134.852 322.383 134.985 322.53C135.118 322.677 135.218 322.813 135.285 322.94C135.352 323.067 135.402 323.197 135.435 323.33L134.605 323.64C134.592 323.56 134.568 323.483 134.535 323.41C134.502 323.33 134.448 323.243 134.375 323.15C134.308 323.057 134.208 322.983 134.075 322.93C133.942 322.87 133.785 322.84 133.605 322.84C133.372 322.84 133.178 322.903 133.025 323.03C132.878 323.157 132.805 323.307 132.805 323.48C132.805 323.787 132.988 323.98 133.355 324.06L134.135 324.23C134.562 324.323 134.888 324.497 135.115 324.75C135.348 324.997 135.465 325.3 135.465 325.66C135.465 326.04 135.308 326.383 134.995 326.69C134.688 326.997 134.258 327.15 133.705 327.15C133.112 327.15 132.648 327.003 132.315 326.71C131.982 326.41 131.792 326.09 131.745 325.75ZM137.647 327H136.717V322.19H137.647V327ZM136.697 320.85C136.57 320.717 136.507 320.557 136.507 320.37C136.507 320.183 136.57 320.023 136.697 319.89C136.83 319.757 136.99 319.69 137.177 319.69C137.363 319.69 137.523 319.757 137.657 319.89C137.79 320.017 137.857 320.177 137.857 320.37C137.857 320.557 137.79 320.717 137.657 320.85C137.523 320.977 137.363 321.04 137.177 321.04C136.99 321.04 136.83 320.977 136.697 320.85ZM140.236 325.86C140.529 326.16 140.886 326.31 141.306 326.31C141.726 326.31 142.079 326.16 142.366 325.86C142.659 325.553 142.806 325.13 142.806 324.59C142.806 324.057 142.659 323.64 142.366 323.34C142.079 323.033 141.726 322.88 141.306 322.88C140.886 322.88 140.529 323.033 140.236 323.34C139.949 323.64 139.806 324.057 139.806 324.59C139.806 325.13 139.949 325.553 140.236 325.86ZM139.536 322.77C140.002 322.283 140.592 322.04 141.306 322.04C142.019 322.04 142.606 322.283 143.066 322.77C143.532 323.25 143.766 323.857 143.766 324.59C143.766 325.33 143.536 325.943 143.076 326.43C142.616 326.91 142.026 327.15 141.306 327.15C140.586 327.15 139.996 326.91 139.536 326.43C139.076 325.943 138.846 325.33 138.846 324.59C138.846 323.857 139.076 323.25 139.536 322.77ZM145.908 324.22V327H144.968V322.19H145.888V322.88C146.208 322.327 146.702 322.05 147.368 322.05C147.922 322.05 148.345 322.227 148.638 322.58C148.938 322.933 149.088 323.39 149.088 323.95V327H148.148V324.11C148.148 323.303 147.775 322.9 147.028 322.9C146.675 322.9 146.398 323.027 146.198 323.28C146.005 323.527 145.908 323.84 145.908 324.22Z" fill="#072B4F"/>
<rect x="296" y="320" width="8" height="8" rx="4" fill="#DC957E"/>
<path d="M188.81 327L188.04 325.02H184.9L184.15 327H183.1L185.92 319.91H187.05L189.87 327H188.81ZM186.46 320.93L185.25 324.11H187.69L186.46 320.93ZM191.664 324.22V327H190.724V322.19H191.644V322.88C191.964 322.327 192.457 322.05 193.124 322.05C193.677 322.05 194.1 322.227 194.394 322.58C194.694 322.933 194.844 323.39 194.844 323.95V327H193.904V324.11C193.904 323.303 193.53 322.9 192.784 322.9C192.43 322.9 192.154 323.027 191.954 323.28C191.76 323.527 191.664 323.84 191.664 324.22ZM195.639 327L197.429 324.55L195.699 322.19H196.839L198.019 323.88L199.179 322.19H200.289L198.579 324.55C198.679 324.677 198.976 325.083 199.469 325.77C199.962 326.457 200.256 326.867 200.349 327H199.219L197.979 325.23L196.759 327H195.639ZM202.181 327H201.251V322.19H202.181V327ZM201.231 320.85C201.105 320.717 201.041 320.557 201.041 320.37C201.041 320.183 201.105 320.023 201.231 319.89C201.365 319.757 201.525 319.69 201.711 319.69C201.898 319.69 202.058 319.757 202.191 319.89C202.325 320.017 202.391 320.177 202.391 320.37C202.391 320.557 202.325 320.717 202.191 320.85C202.058 320.977 201.898 321.04 201.711 321.04C201.525 321.04 201.365 320.977 201.231 320.85ZM204.39 324.1H207.02C207.007 323.74 206.887 323.447 206.66 323.22C206.434 322.987 206.114 322.87 205.7 322.87C205.327 322.87 205.02 322.993 204.78 323.24C204.54 323.48 204.41 323.767 204.39 324.1ZM207.16 325.35L207.97 325.63C207.83 326.077 207.57 326.443 207.19 326.73C206.81 327.01 206.35 327.15 205.81 327.15C205.137 327.15 204.564 326.92 204.09 326.46C203.624 325.993 203.39 325.367 203.39 324.58C203.39 323.847 203.617 323.24 204.07 322.76C204.524 322.28 205.064 322.04 205.69 322.04C206.417 322.04 206.984 322.27 207.39 322.73C207.797 323.183 208 323.793 208 324.56C208 324.68 207.994 324.78 207.98 324.86H204.36C204.367 325.287 204.507 325.637 204.78 325.91C205.06 326.183 205.404 326.32 205.81 326.32C206.497 326.32 206.947 325.997 207.16 325.35ZM210.46 320.67V322.19H211.5V323.04H210.46V325.54C210.46 325.767 210.51 325.933 210.61 326.04C210.717 326.147 210.89 326.2 211.13 326.2C211.27 326.2 211.394 326.187 211.5 326.16V326.96C211.34 327.02 211.127 327.05 210.86 327.05C210.447 327.05 210.12 326.93 209.88 326.69C209.64 326.45 209.52 326.113 209.52 325.68V323.04H208.6V322.19H208.86C209.107 322.19 209.29 322.123 209.41 321.99C209.537 321.85 209.6 321.67 209.6 321.45V320.67H210.46ZM214.004 329.01H212.974L214.174 326.47L212.104 322.19H213.184L214.684 325.51L216.124 322.19H217.134L214.004 329.01Z" fill="#072B4F"/>
<rect x="171" y="320" width="8" height="8" rx="4" fill="#D68AFA"/>
<rect x="87" y="320" width="8" height="8" rx="4" fill="#6FCF97"/>
<path d="M251.88 323.22H253.3C253.72 323.22 254.053 323.113 254.3 322.9C254.547 322.68 254.67 322.387 254.67 322.02C254.67 321.647 254.547 321.35 254.3 321.13C254.053 320.903 253.72 320.79 253.3 320.79H251.88V323.22ZM253.48 324.1H251.88V327H250.9V319.91H253.48C254.127 319.91 254.653 320.11 255.06 320.51C255.467 320.91 255.67 321.41 255.67 322.01C255.67 322.617 255.467 323.117 255.06 323.51C254.653 323.903 254.127 324.1 253.48 324.1ZM261.787 320.82H259.417V327H258.437V320.82H256.067V319.91H261.787V320.82ZM267.305 321.52L266.425 321.83C266.378 321.523 266.228 321.247 265.975 321C265.721 320.747 265.371 320.62 264.925 320.62C264.531 320.62 264.205 320.733 263.945 320.96C263.685 321.187 263.555 321.467 263.555 321.8C263.555 322.06 263.631 322.28 263.785 322.46C263.945 322.64 264.171 322.763 264.465 322.83L265.525 323.06C266.111 323.187 266.565 323.427 266.885 323.78C267.205 324.127 267.365 324.55 267.365 325.05C267.365 325.623 267.138 326.117 266.685 326.53C266.231 326.943 265.641 327.15 264.915 327.15C264.121 327.15 263.498 326.943 263.045 326.53C262.598 326.11 262.338 325.613 262.265 325.04L263.205 324.74C263.245 325.167 263.411 325.527 263.705 325.82C263.998 326.113 264.398 326.26 264.905 326.26C265.371 326.26 265.731 326.153 265.985 325.94C266.238 325.727 266.365 325.457 266.365 325.13C266.365 324.863 266.275 324.633 266.095 324.44C265.915 324.24 265.651 324.103 265.305 324.03L264.295 323.81C263.768 323.697 263.348 323.473 263.035 323.14C262.721 322.807 262.565 322.383 262.565 321.87C262.565 321.31 262.791 320.82 263.245 320.4C263.705 319.973 264.258 319.76 264.905 319.76C265.631 319.76 266.188 319.937 266.575 320.29C266.961 320.643 267.205 321.053 267.305 321.52ZM269.693 326.13H271.143C271.836 326.13 272.409 325.9 272.862 325.44C273.322 324.98 273.553 324.323 273.553 323.47C273.553 322.61 273.326 321.947 272.873 321.48C272.426 321.013 271.856 320.78 271.163 320.78H269.693V326.13ZM271.173 327H268.713V319.91H271.193C272.146 319.91 272.946 320.227 273.593 320.86C274.239 321.487 274.563 322.357 274.563 323.47C274.563 324.577 274.236 325.443 273.583 326.07C272.929 326.69 272.126 327 271.173 327Z" fill="#072B4F"/>
<path d="M307.9 319.91H310.21C310.87 319.91 311.39 320.087 311.77 320.44C312.157 320.793 312.35 321.257 312.35 321.83C312.35 322.197 312.253 322.513 312.06 322.78C311.867 323.047 311.61 323.24 311.29 323.36C311.683 323.46 311.993 323.67 312.22 323.99C312.453 324.303 312.57 324.663 312.57 325.07C312.57 325.63 312.367 326.093 311.96 326.46C311.553 326.82 311.027 327 310.38 327H307.9V319.91ZM308.88 323.01H310.1C310.487 323.01 310.793 322.907 311.02 322.7C311.247 322.487 311.36 322.213 311.36 321.88C311.36 321.54 311.243 321.27 311.01 321.07C310.777 320.87 310.46 320.77 310.06 320.77H308.88V323.01ZM308.88 326.14H310.24C310.64 326.14 310.96 326.037 311.2 325.83C311.447 325.623 311.57 325.35 311.57 325.01C311.57 324.657 311.46 324.377 311.24 324.17C311.02 323.957 310.7 323.85 310.28 323.85H308.88V326.14ZM314.746 327H313.816V322.19H314.746V327ZM313.796 320.85C313.669 320.717 313.606 320.557 313.606 320.37C313.606 320.183 313.669 320.023 313.796 319.89C313.929 319.757 314.089 319.69 314.276 319.69C314.462 319.69 314.622 319.757 314.756 319.89C314.889 320.017 314.956 320.177 314.956 320.37C314.956 320.557 314.889 320.717 314.756 320.85C314.622 320.977 314.462 321.04 314.276 321.04C314.089 321.04 313.929 320.977 313.796 320.85ZM317.275 328.9H316.345V322.19H317.255V322.94C317.395 322.687 317.605 322.48 317.885 322.32C318.165 322.16 318.492 322.08 318.865 322.08C319.558 322.08 320.098 322.317 320.485 322.79C320.878 323.263 321.075 323.863 321.075 324.59C321.075 325.323 320.872 325.93 320.465 326.41C320.065 326.89 319.522 327.13 318.835 327.13C318.482 327.13 318.168 327.057 317.895 326.91C317.622 326.763 317.415 326.577 317.275 326.35V328.9ZM320.115 324.59C320.115 324.103 319.985 323.703 319.725 323.39C319.472 323.07 319.128 322.91 318.695 322.91C318.268 322.91 317.922 323.07 317.655 323.39C317.395 323.703 317.265 324.103 317.265 324.59C317.265 325.09 317.395 325.5 317.655 325.82C317.922 326.133 318.268 326.29 318.695 326.29C319.122 326.29 319.465 326.133 319.725 325.82C319.985 325.5 320.115 325.09 320.115 324.59ZM323.263 325.86C323.556 326.16 323.913 326.31 324.333 326.31C324.753 326.31 325.106 326.16 325.393 325.86C325.686 325.553 325.833 325.13 325.833 324.59C325.833 324.057 325.686 323.64 325.393 323.34C325.106 323.033 324.753 322.88 324.333 322.88C323.913 322.88 323.556 323.033 323.263 323.34C322.976 323.64 322.833 324.057 322.833 324.59C322.833 325.13 322.976 325.553 323.263 325.86ZM322.563 322.77C323.029 322.283 323.619 322.04 324.333 322.04C325.046 322.04 325.633 322.283 326.093 322.77C326.559 323.25 326.793 323.857 326.793 324.59C326.793 325.33 326.563 325.943 326.103 326.43C325.643 326.91 325.053 327.15 324.333 327.15C323.613 327.15 323.023 326.91 322.563 326.43C322.103 325.943 321.873 325.33 321.873 324.59C321.873 323.857 322.103 323.25 322.563 322.77ZM328.935 327H327.995V319.76H328.935V327ZM330.234 325.71C330.234 325.297 330.368 324.967 330.634 324.72C330.901 324.467 331.254 324.31 331.694 324.25L332.994 324.06C333.241 324.027 333.364 323.907 333.364 323.7C333.364 323.447 333.278 323.24 333.104 323.08C332.931 322.92 332.671 322.84 332.324 322.84C332.004 322.84 331.751 322.93 331.564 323.11C331.378 323.283 331.268 323.517 331.234 323.81L330.334 323.6C330.381 323.14 330.591 322.767 330.964 322.48C331.338 322.187 331.784 322.04 332.304 322.04C332.984 322.04 333.488 322.207 333.814 322.54C334.141 322.867 334.304 323.287 334.304 323.8V326.21C334.304 326.497 334.324 326.76 334.364 327H333.444C333.411 326.8 333.394 326.583 333.394 326.35C333.261 326.563 333.064 326.75 332.804 326.91C332.551 327.07 332.231 327.15 331.844 327.15C331.371 327.15 330.984 327.01 330.684 326.73C330.384 326.443 330.234 326.103 330.234 325.71ZM331.974 326.36C332.394 326.36 332.731 326.247 332.984 326.02C333.238 325.793 333.364 325.433 333.364 324.94V324.72L331.894 324.94C331.681 324.973 331.511 325.05 331.384 325.17C331.258 325.29 331.194 325.453 331.194 325.66C331.194 325.847 331.264 326.01 331.404 326.15C331.551 326.29 331.741 326.36 331.974 326.36ZM338.439 322.14V323.14C338.299 323.12 338.162 323.11 338.029 323.11C337.149 323.11 336.709 323.603 336.709 324.59V327H335.769V322.19H336.689V323.03C336.982 322.417 337.462 322.11 338.129 322.11C338.235 322.11 338.339 322.12 338.439 322.14Z" fill="#072B4F"/>
<path d="M378.2 321.4C377.7 321.887 377.45 322.57 377.45 323.45C377.45 324.33 377.7 325.017 378.2 325.51C378.7 326.003 379.303 326.25 380.01 326.25C380.717 326.25 381.32 326.003 381.82 325.51C382.32 325.017 382.57 324.33 382.57 323.45C382.57 322.57 382.32 321.887 381.82 321.4C381.32 320.907 380.717 320.66 380.01 320.66C379.303 320.66 378.7 320.907 378.2 321.4ZM376.45 323.45C376.45 322.877 376.55 322.353 376.75 321.88C376.957 321.407 377.227 321.02 377.56 320.72C377.9 320.413 378.28 320.177 378.7 320.01C379.12 319.843 379.557 319.76 380.01 319.76C380.463 319.76 380.9 319.843 381.32 320.01C381.74 320.177 382.117 320.413 382.45 320.72C382.79 321.02 383.06 321.407 383.26 321.88C383.467 322.353 383.57 322.877 383.57 323.45C383.57 324.21 383.393 324.877 383.04 325.45C382.693 326.023 382.253 326.45 381.72 326.73C381.187 327.01 380.617 327.15 380.01 327.15C379.403 327.15 378.833 327.01 378.3 326.73C377.767 326.45 377.323 326.023 376.97 325.45C376.623 324.877 376.45 324.21 376.45 323.45ZM388.938 322.19L387.018 327H386.068L384.118 322.19H385.178L386.548 325.9L387.928 322.19H388.938ZM390.301 324.1H392.931C392.917 323.74 392.797 323.447 392.571 323.22C392.344 322.987 392.024 322.87 391.611 322.87C391.237 322.87 390.931 322.993 390.691 323.24C390.451 323.48 390.321 323.767 390.301 324.1ZM393.071 325.35L393.881 325.63C393.741 326.077 393.481 326.443 393.101 326.73C392.721 327.01 392.261 327.15 391.721 327.15C391.047 327.15 390.474 326.92 390.001 326.46C389.534 325.993 389.301 325.367 389.301 324.58C389.301 323.847 389.527 323.24 389.981 322.76C390.434 322.28 390.974 322.04 391.601 322.04C392.327 322.04 392.894 322.27 393.301 322.73C393.707 323.183 393.911 323.793 393.911 324.56C393.911 324.68 393.904 324.78 393.891 324.86H390.271C390.277 325.287 390.417 325.637 390.691 325.91C390.971 326.183 391.314 326.32 391.721 326.32C392.407 326.32 392.857 325.997 393.071 325.35ZM397.781 322.14V323.14C397.641 323.12 397.504 323.11 397.371 323.11C396.491 323.11 396.051 323.603 396.051 324.59V327H395.111V322.19H396.031V323.03C396.324 322.417 396.804 322.11 397.471 322.11C397.577 322.11 397.681 322.12 397.781 322.14ZM398.482 325.71C398.482 325.297 398.616 324.967 398.882 324.72C399.149 324.467 399.502 324.31 399.942 324.25L401.242 324.06C401.489 324.027 401.612 323.907 401.612 323.7C401.612 323.447 401.526 323.24 401.352 323.08C401.179 322.92 400.919 322.84 400.572 322.84C400.252 322.84 399.999 322.93 399.812 323.11C399.626 323.283 399.516 323.517 399.482 323.81L398.582 323.6C398.629 323.14 398.839 322.767 399.212 322.48C399.586 322.187 400.032 322.04 400.552 322.04C401.232 322.04 401.736 322.207 402.062 322.54C402.389 322.867 402.552 323.287 402.552 323.8V326.21C402.552 326.497 402.572 326.76 402.612 327H401.692C401.659 326.8 401.642 326.583 401.642 326.35C401.509 326.563 401.312 326.75 401.052 326.91C400.799 327.07 400.479 327.15 400.092 327.15C399.619 327.15 399.232 327.01 398.932 326.73C398.632 326.443 398.482 326.103 398.482 325.71ZM400.222 326.36C400.642 326.36 400.979 326.247 401.232 326.02C401.486 325.793 401.612 325.433 401.612 324.94V324.72L400.142 324.94C399.929 324.973 399.759 325.05 399.632 325.17C399.506 325.29 399.442 325.453 399.442 325.66C399.442 325.847 399.512 326.01 399.652 326.15C399.799 326.29 399.989 326.36 400.222 326.36ZM404.957 327H404.017V319.76H404.957V327ZM407.496 327H406.556V319.76H407.496V327ZM416.215 321.52L415.335 321.83C415.288 321.523 415.138 321.247 414.885 321C414.632 320.747 414.282 320.62 413.835 320.62C413.442 320.62 413.115 320.733 412.855 320.96C412.595 321.187 412.465 321.467 412.465 321.8C412.465 322.06 412.542 322.28 412.695 322.46C412.855 322.64 413.082 322.763 413.375 322.83L414.435 323.06C415.022 323.187 415.475 323.427 415.795 323.78C416.115 324.127 416.275 324.55 416.275 325.05C416.275 325.623 416.048 326.117 415.595 326.53C415.142 326.943 414.552 327.15 413.825 327.15C413.032 327.15 412.408 326.943 411.955 326.53C411.508 326.11 411.248 325.613 411.175 325.04L412.115 324.74C412.155 325.167 412.322 325.527 412.615 325.82C412.908 326.113 413.308 326.26 413.815 326.26C414.282 326.26 414.642 326.153 414.895 325.94C415.148 325.727 415.275 325.457 415.275 325.13C415.275 324.863 415.185 324.633 415.005 324.44C414.825 324.24 414.562 324.103 414.215 324.03L413.205 323.81C412.678 323.697 412.258 323.473 411.945 323.14C411.632 322.807 411.475 322.383 411.475 321.87C411.475 321.31 411.702 320.82 412.155 320.4C412.615 319.973 413.168 319.76 413.815 319.76C414.542 319.76 415.098 319.937 415.485 320.29C415.872 320.643 416.115 321.053 416.215 321.52ZM419.445 322.91C419.038 322.91 418.692 323.057 418.405 323.35C418.125 323.643 417.985 324.057 417.985 324.59C417.985 325.117 418.125 325.53 418.405 325.83C418.692 326.13 419.042 326.28 419.455 326.28C419.855 326.28 420.158 326.18 420.365 325.98C420.578 325.78 420.722 325.55 420.795 325.29L421.625 325.65C421.492 326.05 421.238 326.4 420.865 326.7C420.498 327 420.028 327.15 419.455 327.15C418.755 327.15 418.175 326.907 417.715 326.42C417.255 325.933 417.025 325.323 417.025 324.59C417.025 323.843 417.255 323.233 417.715 322.76C418.175 322.28 418.752 322.04 419.445 322.04C420.032 322.04 420.505 322.19 420.865 322.49C421.232 322.79 421.472 323.15 421.585 323.57L420.735 323.93C420.662 323.65 420.522 323.41 420.315 323.21C420.108 323.01 419.818 322.91 419.445 322.91ZM423.669 325.86C423.962 326.16 424.319 326.31 424.739 326.31C425.159 326.31 425.512 326.16 425.799 325.86C426.092 325.553 426.239 325.13 426.239 324.59C426.239 324.057 426.092 323.64 425.799 323.34C425.512 323.033 425.159 322.88 424.739 322.88C424.319 322.88 423.962 323.033 423.669 323.34C423.382 323.64 423.239 324.057 423.239 324.59C423.239 325.13 423.382 325.553 423.669 325.86ZM422.969 322.77C423.436 322.283 424.026 322.04 424.739 322.04C425.452 322.04 426.039 322.283 426.499 322.77C426.966 323.25 427.199 323.857 427.199 324.59C427.199 325.33 426.969 325.943 426.509 326.43C426.049 326.91 425.459 327.15 424.739 327.15C424.019 327.15 423.429 326.91 422.969 326.43C422.509 325.943 422.279 325.33 422.279 324.59C422.279 323.857 422.509 323.25 422.969 322.77ZM431.072 322.14V323.14C430.932 323.12 430.795 323.11 430.662 323.11C429.782 323.11 429.342 323.603 429.342 324.59V327H428.402V322.19H429.322V323.03C429.615 322.417 430.095 322.11 430.762 322.11C430.868 322.11 430.972 322.12 431.072 322.14ZM432.635 324.1H435.265C435.251 323.74 435.131 323.447 434.905 323.22C434.678 322.987 434.358 322.87 433.945 322.87C433.571 322.87 433.265 322.993 433.025 323.24C432.785 323.48 432.655 323.767 432.635 324.1ZM435.405 325.35L436.215 325.63C436.075 326.077 435.815 326.443 435.435 326.73C435.055 327.01 434.595 327.15 434.055 327.15C433.381 327.15 432.808 326.92 432.335 326.46C431.868 325.993 431.635 325.367 431.635 324.58C431.635 323.847 431.861 323.24 432.315 322.76C432.768 322.28 433.308 322.04 433.935 322.04C434.661 322.04 435.228 322.27 435.635 322.73C436.041 323.183 436.245 323.793 436.245 324.56C436.245 324.68 436.238 324.78 436.225 324.86H432.605C432.611 325.287 432.751 325.637 433.025 325.91C433.305 326.183 433.648 326.32 434.055 326.32C434.741 326.32 435.191 325.997 435.405 325.35Z" fill="#072B4F"/>
<path d="M365 317L370.196 326H359.804L365 317Z" fill="#2968EA"/>
<path d="M365 317L370.196 326H359.804L365 317Z" fill="#2968EA"/>
<path d="M365 317L370.196 326H359.804L365 317Z" fill="#2968EA"/>
<rect x="100.725" y="50.361" width="89.0861" height="217.57" stroke="#D2D8DF"/>
<rect x="189.334" y="50.361" width="87.6093" height="217.57" stroke="#D2D8DF"/>
<rect x="276.467" y="50.361" width="87.6093" height="217.57" stroke="#D2D8DF"/>
<rect x="363.599" y="50.361" width="87.6093" height="217.57" stroke="#D2D8DF"/>
<rect x="81.3957" y="50.2302" width="375.851" height="0.738411" rx="0.369205" stroke="#E6EAED" stroke-width="0.738411"/>
<rect x="81.3957" y="103.396" width="381.758" height="0.738411" rx="0.369205" stroke="#E6EAED" stroke-width="0.738411"/>
<rect x="81.3957" y="215.634" width="380.281" height="0.738411" rx="0.369205" stroke="#E6EAED" stroke-width="0.738411"/>
<rect x="84.3493" y="158.038" width="380.281" height="0.738411" rx="0.369205" stroke="#E6EAED" stroke-width="0.738411"/>
<rect x="81.3957" y="267.323" width="381.758" height="0.738411" rx="0.369205" stroke="#B5BFCA" stroke-width="0.738411"/>
<path d="M63.632 264.774C63.328 265.094 63.176 265.654 63.176 266.454C63.176 267.254 63.328 267.814 63.632 268.134C63.8453 268.358 64.12 268.47 64.456 268.47C64.792 268.47 65.0667 268.358 65.28 268.134C65.584 267.814 65.736 267.254 65.736 266.454C65.736 265.654 65.584 265.094 65.28 264.774C65.0667 264.55 64.792 264.438 64.456 264.438C64.12 264.438 63.8453 264.55 63.632 264.774ZM62.864 268.334C62.5547 267.876 62.4 267.249 62.4 266.454C62.4 265.66 62.5547 265.033 62.864 264.574C63.232 264.02 63.7627 263.742 64.456 263.742C65.1493 263.742 65.68 264.02 66.048 264.574C66.3573 265.033 66.512 265.66 66.512 266.454C66.512 267.249 66.3573 267.876 66.048 268.334C65.68 268.889 65.1493 269.166 64.456 269.166C63.7627 269.166 63.232 268.889 62.864 268.334ZM68.0378 264.614C67.9205 264.732 67.8618 264.881 67.8618 265.062C67.8618 265.244 67.9205 265.396 68.0378 265.518C68.1551 265.636 68.3018 265.694 68.4778 265.694C68.6538 265.694 68.8005 265.636 68.9178 265.518C69.0351 265.396 69.0938 265.244 69.0938 265.062C69.0938 264.881 69.0351 264.732 68.9178 264.614C68.8005 264.497 68.6538 264.438 68.4778 264.438C68.3018 264.438 68.1551 264.497 68.0378 264.614ZM67.1978 265.062C67.1978 264.716 67.3231 264.42 67.5738 264.174C67.8298 263.929 68.1311 263.806 68.4778 263.806C68.8245 263.806 69.1258 263.929 69.3818 264.174C69.6378 264.42 69.7658 264.716 69.7658 265.062C69.7658 265.414 69.6378 265.713 69.3818 265.958C69.1258 266.204 68.8245 266.326 68.4778 266.326C68.1311 266.326 67.8298 266.204 67.5738 265.958C67.3231 265.713 67.1978 265.414 67.1978 265.062ZM71.2058 267.398C71.0885 267.516 71.0298 267.665 71.0298 267.846C71.0298 268.028 71.0885 268.18 71.2058 268.302C71.3231 268.42 71.4698 268.478 71.6458 268.478C71.8218 268.478 71.9685 268.42 72.0858 268.302C72.2031 268.18 72.2618 268.028 72.2618 267.846C72.2618 267.665 72.2031 267.516 72.0858 267.398C71.9685 267.281 71.8218 267.222 71.6458 267.222C71.4698 267.222 71.3231 267.281 71.2058 267.398ZM70.3658 267.846C70.3658 267.5 70.4911 267.204 70.7418 266.958C70.9978 266.713 71.2991 266.59 71.6458 266.59C71.9925 266.59 72.2938 266.713 72.5498 266.958C72.8058 267.204 72.9338 267.5 72.9338 267.846C72.9338 268.198 72.8058 268.497 72.5498 268.742C72.2938 268.988 71.9925 269.11 71.6458 269.11C71.2991 269.11 70.9978 268.988 70.7418 268.742C70.4911 268.497 70.3658 268.198 70.3658 267.846ZM68.5738 269.046H67.8378L71.5658 263.862H72.2858L68.5738 269.046Z" fill="#8395A7"/>
<path d="M88.0618 290.832L87.2778 290.736C87.2724 290.688 87.2698 290.619 87.2698 290.528C87.2698 290.064 87.4324 289.67 87.7578 289.344C88.0831 289.014 88.5178 288.848 89.0618 288.848C89.6004 288.848 90.0271 289.003 90.3418 289.312C90.6564 289.616 90.8138 289.992 90.8138 290.44C90.8138 291.096 90.4884 291.63 89.8378 292.04L88.8138 292.696C88.4458 292.931 88.2351 293.174 88.1818 293.424H90.8458V294.152H87.2138C87.2244 293.715 87.3231 293.331 87.5098 293C87.7018 292.67 88.0138 292.366 88.4458 292.088L89.3098 291.528C89.7844 291.224 90.0218 290.864 90.0218 290.448C90.0218 290.192 89.9364 289.976 89.7658 289.8C89.5951 289.624 89.3551 289.536 89.0458 289.536C88.7204 289.536 88.4724 289.635 88.3018 289.832C88.1311 290.03 88.0458 290.286 88.0458 290.6C88.0458 290.648 88.0511 290.726 88.0618 290.832ZM91.6242 293.968L91.8802 293.32C92.1522 293.486 92.4668 293.568 92.8242 293.568C93.4162 293.568 93.8588 293.4 94.1522 293.064C94.4508 292.723 94.6082 292.278 94.6242 291.728C94.5228 291.915 94.3548 292.072 94.1202 292.2C93.8908 292.328 93.6108 292.392 93.2802 292.392C92.8002 292.392 92.3815 292.238 92.0242 291.928C91.6668 291.614 91.4882 291.184 91.4882 290.64C91.4882 290.118 91.6748 289.688 92.0482 289.352C92.4268 289.016 92.8775 288.848 93.4002 288.848C93.9548 288.848 94.4295 289.051 94.8242 289.456C95.2188 289.862 95.4162 290.454 95.4162 291.232C95.4162 292.203 95.1975 292.952 94.7602 293.48C94.3282 294.008 93.6828 294.272 92.8242 294.272C92.6215 294.272 92.4028 294.243 92.1682 294.184C91.9335 294.126 91.7522 294.054 91.6242 293.968ZM94.5202 290.624C94.5202 290.304 94.4082 290.043 94.1842 289.84C93.9602 289.638 93.6988 289.536 93.4002 289.536C93.0962 289.536 92.8322 289.638 92.6082 289.84C92.3895 290.038 92.2802 290.299 92.2802 290.624C92.2802 290.96 92.3895 291.227 92.6082 291.424C92.8268 291.622 93.0908 291.72 93.4002 291.72C93.7042 291.72 93.9655 291.622 94.1842 291.424C94.4082 291.222 94.5202 290.955 94.5202 290.624Z" fill="#8395A7"/>
<path d="M130.085 291.744L129.701 291.096L131.229 289.688H128.749V288.968H132.269V289.672L130.789 291.04C131.21 291.04 131.581 291.179 131.901 291.456C132.226 291.734 132.389 292.12 132.389 292.616C132.389 293.075 132.221 293.467 131.885 293.792C131.549 294.118 131.09 294.28 130.509 294.28C129.938 294.28 129.479 294.123 129.133 293.808C128.791 293.488 128.607 293.102 128.581 292.648L129.349 292.472C129.365 292.808 129.479 293.08 129.693 293.288C129.911 293.491 130.181 293.592 130.501 293.592C130.842 293.592 131.109 293.502 131.301 293.32C131.498 293.134 131.597 292.904 131.597 292.632C131.597 292.318 131.493 292.078 131.285 291.912C131.077 291.747 130.829 291.664 130.541 291.664C130.386 291.664 130.234 291.691 130.085 291.744ZM134.339 289.88C134.035 290.2 133.883 290.76 133.883 291.56C133.883 292.36 134.035 292.92 134.339 293.24C134.552 293.464 134.827 293.576 135.163 293.576C135.499 293.576 135.773 293.464 135.987 293.24C136.291 292.92 136.443 292.36 136.443 291.56C136.443 290.76 136.291 290.2 135.987 289.88C135.773 289.656 135.499 289.544 135.163 289.544C134.827 289.544 134.552 289.656 134.339 289.88ZM133.571 293.44C133.261 292.982 133.107 292.355 133.107 291.56C133.107 290.766 133.261 290.139 133.571 289.68C133.939 289.126 134.469 288.848 135.163 288.848C135.856 288.848 136.387 289.126 136.755 289.68C137.064 290.139 137.219 290.766 137.219 291.56C137.219 292.355 137.064 292.982 136.755 293.44C136.387 293.995 135.856 294.272 135.163 294.272C134.469 294.272 133.939 293.995 133.571 293.44Z" fill="#8395A7"/>
<path d="M168.482 291.744L168.098 291.096L169.626 289.688H167.146V288.968H170.666V289.672L169.186 291.04C169.607 291.04 169.978 291.179 170.298 291.456C170.623 291.734 170.786 292.12 170.786 292.616C170.786 293.075 170.618 293.467 170.282 293.792C169.946 294.118 169.487 294.28 168.906 294.28C168.335 294.28 167.877 294.123 167.53 293.808C167.189 293.488 167.005 293.102 166.978 292.648L167.746 292.472C167.762 292.808 167.877 293.08 168.09 293.288C168.309 293.491 168.578 293.592 168.898 293.592C169.239 293.592 169.506 293.502 169.698 293.32C169.895 293.134 169.994 292.904 169.994 292.632C169.994 292.318 169.89 292.078 169.682 291.912C169.474 291.747 169.226 291.664 168.938 291.664C168.783 291.664 168.631 291.691 168.482 291.744ZM173.289 294.152H172.521V290.496H171.265V289.944C171.617 289.939 171.913 289.848 172.153 289.672C172.393 289.491 172.542 289.256 172.601 288.968H173.289V294.152Z" fill="#8395A7"/>
<path d="M202.286 292.464V292.096L203.07 291.92V292.456C203.07 292.819 203.158 293.091 203.334 293.272C203.51 293.454 203.747 293.544 204.046 293.544C204.334 293.544 204.56 293.454 204.726 293.272C204.891 293.091 204.974 292.838 204.974 292.512V288.48H205.758V292.456C205.758 292.968 205.6 293.4 205.286 293.752C204.976 294.099 204.566 294.272 204.054 294.272C203.504 294.272 203.072 294.11 202.758 293.784C202.443 293.454 202.286 293.014 202.286 292.464ZM210.543 293.728C210.165 294.091 209.677 294.272 209.079 294.272C208.482 294.272 207.991 294.091 207.607 293.728C207.229 293.366 207.039 292.862 207.039 292.216V288.48H207.815V292.192C207.815 292.624 207.925 292.958 208.143 293.192C208.367 293.427 208.679 293.544 209.079 293.544C209.479 293.544 209.789 293.427 210.007 293.192C210.226 292.958 210.335 292.624 210.335 292.192V288.48H211.119V292.216C211.119 292.862 210.927 293.366 210.543 293.728ZM215.943 294.152H212.479V288.48H213.263V293.416H215.943V294.152Z" fill="#8395A7"/>
<path d="M273.168 289.88C272.864 290.2 272.712 290.76 272.712 291.56C272.712 292.36 272.864 292.92 273.168 293.24C273.382 293.464 273.656 293.576 273.992 293.576C274.328 293.576 274.603 293.464 274.816 293.24C275.12 292.92 275.272 292.36 275.272 291.56C275.272 290.76 275.12 290.2 274.816 289.88C274.603 289.656 274.328 289.544 273.992 289.544C273.656 289.544 273.382 289.656 273.168 289.88ZM272.4 293.44C272.091 292.982 271.936 292.355 271.936 291.56C271.936 290.766 272.091 290.139 272.4 289.68C272.768 289.126 273.299 288.848 273.992 288.848C274.686 288.848 275.216 289.126 275.584 289.68C275.894 290.139 276.048 290.766 276.048 291.56C276.048 292.355 275.894 292.982 275.584 293.44C275.216 293.995 274.686 294.272 273.992 294.272C273.299 294.272 272.768 293.995 272.4 293.44ZM278.211 291.744L277.827 291.096L279.355 289.688H276.875V288.968H280.395V289.672L278.915 291.04C279.337 291.04 279.707 291.179 280.027 291.456C280.353 291.734 280.515 292.12 280.515 292.616C280.515 293.075 280.347 293.467 280.011 293.792C279.675 294.118 279.217 294.28 278.635 294.28C278.065 294.28 277.606 294.123 277.259 293.808C276.918 293.488 276.734 293.102 276.707 292.648L277.475 292.472C277.491 292.808 277.606 293.08 277.819 293.288C278.038 293.491 278.307 293.592 278.627 293.592C278.969 293.592 279.235 293.502 279.427 293.32C279.625 293.134 279.723 292.904 279.723 292.632C279.723 292.318 279.619 292.078 279.411 291.912C279.203 291.747 278.955 291.664 278.667 291.664C278.513 291.664 278.361 291.691 278.211 291.744Z" fill="#8395A7"/>
<path d="M242.155 289.88C241.851 290.2 241.699 290.76 241.699 291.56C241.699 292.36 241.851 292.92 242.155 293.24C242.369 293.464 242.643 293.576 242.979 293.576C243.315 293.576 243.59 293.464 243.803 293.24C244.107 292.92 244.259 292.36 244.259 291.56C244.259 290.76 244.107 290.2 243.803 289.88C243.59 289.656 243.315 289.544 242.979 289.544C242.643 289.544 242.369 289.656 242.155 289.88ZM241.387 293.44C241.078 292.982 240.923 292.355 240.923 291.56C240.923 290.766 241.078 290.139 241.387 289.68C241.755 289.126 242.286 288.848 242.979 288.848C243.673 288.848 244.203 289.126 244.571 289.68C244.881 290.139 245.035 290.766 245.035 291.56C245.035 292.355 244.881 292.982 244.571 293.44C244.203 293.995 243.673 294.272 242.979 294.272C242.286 294.272 241.755 293.995 241.387 293.44ZM246.565 290.832L245.781 290.736C245.776 290.688 245.773 290.619 245.773 290.528C245.773 290.064 245.936 289.67 246.261 289.344C246.587 289.014 247.021 288.848 247.565 288.848C248.104 288.848 248.531 289.003 248.845 289.312C249.16 289.616 249.317 289.992 249.317 290.44C249.317 291.096 248.992 291.63 248.341 292.04L247.317 292.696C246.949 292.931 246.739 293.174 246.685 293.424H249.349V294.152H245.717C245.728 293.715 245.827 293.331 246.013 293C246.205 292.67 246.517 292.366 246.949 292.088L247.813 291.528C248.288 291.224 248.525 290.864 248.525 290.448C248.525 290.192 248.44 289.976 248.269 289.8C248.099 289.624 247.859 289.536 247.549 289.536C247.224 289.536 246.976 289.635 246.805 289.832C246.635 290.03 246.549 290.286 246.549 290.6C246.549 290.648 246.555 290.726 246.565 290.832Z" fill="#8395A7"/>
<path d="M302.705 289.88C302.401 290.2 302.249 290.76 302.249 291.56C302.249 292.36 302.401 292.92 302.705 293.24C302.918 293.464 303.193 293.576 303.529 293.576C303.865 293.576 304.14 293.464 304.353 293.24C304.657 292.92 304.809 292.36 304.809 291.56C304.809 290.76 304.657 290.2 304.353 289.88C304.14 289.656 303.865 289.544 303.529 289.544C303.193 289.544 302.918 289.656 302.705 289.88ZM301.937 293.44C301.628 292.982 301.473 292.355 301.473 291.56C301.473 290.766 301.628 290.139 301.937 289.68C302.305 289.126 302.836 288.848 303.529 288.848C304.222 288.848 304.753 289.126 305.121 289.68C305.43 290.139 305.585 290.766 305.585 291.56C305.585 292.355 305.43 292.982 305.121 293.44C304.753 293.995 304.222 294.272 303.529 294.272C302.836 294.272 302.305 293.995 301.937 293.44ZM306.267 292.984V292.08L308.491 288.968H309.571V292.256H310.459V292.984H309.571V294.152H308.811V292.984H306.267ZM308.811 292.256V289.72L306.987 292.256H308.811Z" fill="#8395A7"/>
<path d="M439.545 290.832L438.761 290.736C438.756 290.688 438.753 290.619 438.753 290.528C438.753 290.064 438.916 289.67 439.241 289.344C439.567 289.014 440.001 288.848 440.545 288.848C441.084 288.848 441.511 289.003 441.825 289.312C442.14 289.616 442.297 289.992 442.297 290.44C442.297 291.096 441.972 291.63 441.321 292.04L440.297 292.696C439.929 292.931 439.719 293.174 439.665 293.424H442.329V294.152H438.697C438.708 293.715 438.807 293.331 438.993 293C439.185 292.67 439.497 292.366 439.929 292.088L440.793 291.528C441.268 291.224 441.505 290.864 441.505 290.448C441.505 290.192 441.42 289.976 441.249 289.8C441.079 289.624 440.839 289.536 440.529 289.536C440.204 289.536 439.956 289.635 439.785 289.832C439.615 290.03 439.529 290.286 439.529 290.6C439.529 290.648 439.535 290.726 439.545 290.832ZM443.108 293.968L443.364 293.32C443.636 293.486 443.95 293.568 444.308 293.568C444.9 293.568 445.342 293.4 445.636 293.064C445.934 292.723 446.092 292.278 446.108 291.728C446.006 291.915 445.838 292.072 445.604 292.2C445.374 292.328 445.094 292.392 444.764 292.392C444.284 292.392 443.865 292.238 443.508 291.928C443.15 291.614 442.972 291.184 442.972 290.64C442.972 290.118 443.158 289.688 443.532 289.352C443.91 289.016 444.361 288.848 444.884 288.848C445.438 288.848 445.913 289.051 446.308 289.456C446.702 289.862 446.9 290.454 446.9 291.232C446.9 292.203 446.681 292.952 446.244 293.48C445.812 294.008 445.166 294.272 444.308 294.272C444.105 294.272 443.886 294.243 443.652 294.184C443.417 294.126 443.236 294.054 443.108 293.968ZM446.004 290.624C446.004 290.304 445.892 290.043 445.668 289.84C445.444 289.638 445.182 289.536 444.884 289.536C444.58 289.536 444.316 289.638 444.092 289.84C443.873 290.038 443.764 290.299 443.764 290.624C443.764 290.96 443.873 291.227 444.092 291.424C444.31 291.622 444.574 291.72 444.884 291.72C445.188 291.72 445.449 291.622 445.668 291.424C445.892 291.222 446.004 290.955 446.004 290.624Z" fill="#8395A7"/>
<path d="M63.128 211.084L62.344 210.988C62.3387 210.94 62.336 210.871 62.336 210.78C62.336 210.316 62.4987 209.921 62.824 209.596C63.1493 209.265 63.584 209.1 64.128 209.1C64.6667 209.1 65.0933 209.255 65.408 209.564C65.7227 209.868 65.88 210.244 65.88 210.692C65.88 211.348 65.5547 211.881 64.904 212.292L63.88 212.948C63.512 213.183 63.3013 213.425 63.248 213.676H65.912V214.404H62.28C62.2907 213.967 62.3893 213.583 62.576 213.252C62.768 212.921 63.08 212.617 63.512 212.34L64.376 211.78C64.8507 211.476 65.088 211.116 65.088 210.7C65.088 210.444 65.0027 210.228 64.832 210.052C64.6613 209.876 64.4213 209.788 64.112 209.788C63.7867 209.788 63.5387 209.887 63.368 210.084C63.1973 210.281 63.112 210.537 63.112 210.852C63.112 210.9 63.1173 210.977 63.128 211.084ZM66.5144 212.996L67.2664 212.772C67.2877 213.092 67.405 213.351 67.6184 213.548C67.837 213.745 68.109 213.844 68.4344 213.844C68.749 213.844 69.013 213.748 69.2264 213.556C69.4397 213.364 69.5464 213.111 69.5464 212.796C69.5464 212.455 69.4397 212.191 69.2264 212.004C69.013 211.817 68.7464 211.724 68.4264 211.724C68.037 211.724 67.7224 211.849 67.4824 212.1C67.4077 212.073 67.285 212.025 67.1144 211.956C66.9437 211.887 66.8104 211.833 66.7144 211.796L67.3864 209.22H70.1224V209.94H67.9064L67.5224 211.428C67.7517 211.172 68.1037 211.044 68.5784 211.044C69.0957 211.044 69.517 211.199 69.8424 211.508C70.173 211.817 70.3384 212.236 70.3384 212.764C70.3384 213.265 70.1624 213.687 69.8104 214.028C69.4584 214.364 68.9997 214.532 68.4344 214.532C67.901 214.532 67.4557 214.383 67.0984 214.084C66.7464 213.785 66.5517 213.423 66.5144 212.996ZM71.8191 209.972C71.7017 210.089 71.6431 210.239 71.6431 210.42C71.6431 210.601 71.7017 210.753 71.8191 210.876C71.9364 210.993 72.0831 211.052 72.2591 211.052C72.4351 211.052 72.5817 210.993 72.6991 210.876C72.8164 210.753 72.8751 210.601 72.8751 210.42C72.8751 210.239 72.8164 210.089 72.6991 209.972C72.5817 209.855 72.4351 209.796 72.2591 209.796C72.0831 209.796 71.9364 209.855 71.8191 209.972ZM70.9791 210.42C70.9791 210.073 71.1044 209.777 71.3551 209.532C71.6111 209.287 71.9124 209.164 72.2591 209.164C72.6057 209.164 72.9071 209.287 73.1631 209.532C73.4191 209.777 73.5471 210.073 73.5471 210.42C73.5471 210.772 73.4191 211.071 73.1631 211.316C72.9071 211.561 72.6057 211.684 72.2591 211.684C71.9124 211.684 71.6111 211.561 71.3551 211.316C71.1044 211.071 70.9791 210.772 70.9791 210.42ZM74.9871 212.756C74.8697 212.873 74.8111 213.023 74.8111 213.204C74.8111 213.385 74.8697 213.537 74.9871 213.66C75.1044 213.777 75.2511 213.836 75.4271 213.836C75.6031 213.836 75.7497 213.777 75.8671 213.66C75.9844 213.537 76.0431 213.385 76.0431 213.204C76.0431 213.023 75.9844 212.873 75.8671 212.756C75.7497 212.639 75.6031 212.58 75.4271 212.58C75.2511 212.58 75.1044 212.639 74.9871 212.756ZM74.1471 213.204C74.1471 212.857 74.2724 212.561 74.5231 212.316C74.7791 212.071 75.0804 211.948 75.4271 211.948C75.7737 211.948 76.0751 212.071 76.3311 212.316C76.5871 212.561 76.7151 212.857 76.7151 213.204C76.7151 213.556 76.5871 213.855 76.3311 214.1C76.0751 214.345 75.7737 214.468 75.4271 214.468C75.0804 214.468 74.7791 214.345 74.5231 214.1C74.2724 213.855 74.1471 213.556 74.1471 213.204ZM72.3551 214.404H71.6191L75.3471 209.22H76.0671L72.3551 214.404Z" fill="#8395A7"/>
<path d="M62.28 158.354L63.032 158.13C63.0533 158.45 63.1707 158.708 63.384 158.906C63.6027 159.103 63.8747 159.202 64.2 159.202C64.5147 159.202 64.7787 159.106 64.992 158.914C65.2053 158.722 65.312 158.468 65.312 158.154C65.312 157.812 65.2053 157.548 64.992 157.362C64.7787 157.175 64.512 157.082 64.192 157.082C63.8027 157.082 63.488 157.207 63.248 157.458C63.1733 157.431 63.0507 157.383 62.88 157.314C62.7093 157.244 62.576 157.191 62.48 157.154L63.152 154.578H65.888V155.298H63.672L63.288 156.786C63.5173 156.53 63.8693 156.402 64.344 156.402C64.8613 156.402 65.2827 156.556 65.608 156.866C65.9387 157.175 66.104 157.594 66.104 158.122C66.104 158.623 65.928 159.044 65.576 159.386C65.224 159.722 64.7653 159.89 64.2 159.89C63.6667 159.89 63.2213 159.74 62.864 159.442C62.512 159.143 62.3173 158.78 62.28 158.354ZM68.0148 155.49C67.7108 155.81 67.5588 156.37 67.5588 157.17C67.5588 157.97 67.7108 158.53 68.0148 158.85C68.2281 159.074 68.5028 159.186 68.8388 159.186C69.1748 159.186 69.4495 159.074 69.6628 158.85C69.9668 158.53 70.1188 157.97 70.1188 157.17C70.1188 156.37 69.9668 155.81 69.6628 155.49C69.4495 155.266 69.1748 155.154 68.8388 155.154C68.5028 155.154 68.2281 155.266 68.0148 155.49ZM67.2468 159.05C66.9375 158.591 66.7828 157.964 66.7828 157.17C66.7828 156.375 66.9375 155.748 67.2468 155.29C67.6148 154.735 68.1455 154.458 68.8388 154.458C69.5321 154.458 70.0628 154.735 70.4308 155.29C70.7401 155.748 70.8948 156.375 70.8948 157.17C70.8948 157.964 70.7401 158.591 70.4308 159.05C70.0628 159.604 69.5321 159.882 68.8388 159.882C68.1455 159.882 67.6148 159.604 67.2468 159.05ZM72.4206 155.33C72.3033 155.447 72.2446 155.596 72.2446 155.778C72.2446 155.959 72.3033 156.111 72.4206 156.234C72.538 156.351 72.6846 156.41 72.8606 156.41C73.0366 156.41 73.1833 156.351 73.3006 156.234C73.418 156.111 73.4766 155.959 73.4766 155.778C73.4766 155.596 73.418 155.447 73.3006 155.33C73.1833 155.212 73.0366 155.154 72.8606 155.154C72.6846 155.154 72.538 155.212 72.4206 155.33ZM71.5806 155.778C71.5806 155.431 71.706 155.135 71.9566 154.89C72.2126 154.644 72.514 154.522 72.8606 154.522C73.2073 154.522 73.5086 154.644 73.7646 154.89C74.0206 155.135 74.1486 155.431 74.1486 155.778C74.1486 156.13 74.0206 156.428 73.7646 156.674C73.5086 156.919 73.2073 157.042 72.8606 157.042C72.514 157.042 72.2126 156.919 71.9566 156.674C71.706 156.428 71.5806 156.13 71.5806 155.778ZM75.5886 158.114C75.4713 158.231 75.4126 158.38 75.4126 158.562C75.4126 158.743 75.4713 158.895 75.5886 159.018C75.706 159.135 75.8526 159.194 76.0286 159.194C76.2046 159.194 76.3513 159.135 76.4686 159.018C76.586 158.895 76.6446 158.743 76.6446 158.562C76.6446 158.38 76.586 158.231 76.4686 158.114C76.3513 157.996 76.2046 157.938 76.0286 157.938C75.8526 157.938 75.706 157.996 75.5886 158.114ZM74.7486 158.562C74.7486 158.215 74.874 157.919 75.1246 157.674C75.3806 157.428 75.682 157.306 76.0286 157.306C76.3753 157.306 76.6766 157.428 76.9326 157.674C77.1886 157.919 77.3166 158.215 77.3166 158.562C77.3166 158.914 77.1886 159.212 76.9326 159.458C76.6766 159.703 76.3753 159.826 76.0286 159.826C75.682 159.826 75.3806 159.703 75.1246 159.458C74.874 159.212 74.7486 158.914 74.7486 158.562ZM72.9566 159.762H72.2206L75.9486 154.578H76.6686L72.9566 159.762Z" fill="#8395A7"/>
<path d="M64.224 50.4768H63.456V46.8208H62.2V46.2688C62.552 46.2635 62.848 46.1728 63.088 45.9968C63.328 45.8155 63.4773 45.5808 63.536 45.2928H64.224V50.4768ZM66.4914 46.2048C66.1874 46.5248 66.0354 47.0848 66.0354 47.8848C66.0354 48.6848 66.1874 49.2448 66.4914 49.5648C66.7047 49.7888 66.9794 49.9008 67.3154 49.9008C67.6514 49.9008 67.926 49.7888 68.1394 49.5648C68.4434 49.2448 68.5954 48.6848 68.5954 47.8848C68.5954 47.0848 68.4434 46.5248 68.1394 46.2048C67.926 45.9808 67.6514 45.8688 67.3154 45.8688C66.9794 45.8688 66.7047 45.9808 66.4914 46.2048ZM65.7234 49.7648C65.414 49.3061 65.2594 48.6795 65.2594 47.8848C65.2594 47.0901 65.414 46.4635 65.7234 46.0048C66.0914 45.4501 66.622 45.1728 67.3154 45.1728C68.0087 45.1728 68.5394 45.4501 68.9074 46.0048C69.2167 46.4635 69.3714 47.0901 69.3714 47.8848C69.3714 48.6795 69.2167 49.3061 68.9074 49.7648C68.5394 50.3195 68.0087 50.5968 67.3154 50.5968C66.622 50.5968 66.0914 50.3195 65.7234 49.7648ZM71.3664 46.2048C71.0624 46.5248 70.9104 47.0848 70.9104 47.8848C70.9104 48.6848 71.0624 49.2448 71.3664 49.5648C71.5797 49.7888 71.8544 49.9008 72.1904 49.9008C72.5264 49.9008 72.801 49.7888 73.0144 49.5648C73.3184 49.2448 73.4704 48.6848 73.4704 47.8848C73.4704 47.0848 73.3184 46.5248 73.0144 46.2048C72.801 45.9808 72.5264 45.8688 72.1904 45.8688C71.8544 45.8688 71.5797 45.9808 71.3664 46.2048ZM70.5984 49.7648C70.289 49.3061 70.1344 48.6795 70.1344 47.8848C70.1344 47.0901 70.289 46.4635 70.5984 46.0048C70.9664 45.4501 71.497 45.1728 72.1904 45.1728C72.8837 45.1728 73.4144 45.4501 73.7824 46.0048C74.0917 46.4635 74.2464 47.0901 74.2464 47.8848C74.2464 48.6795 74.0917 49.3061 73.7824 49.7648C73.4144 50.3195 72.8837 50.5968 72.1904 50.5968C71.497 50.5968 70.9664 50.3195 70.5984 49.7648ZM75.7722 46.0448C75.6549 46.1621 75.5962 46.3115 75.5962 46.4928C75.5962 46.6741 75.6549 46.8261 75.7722 46.9488C75.8895 47.0661 76.0362 47.1248 76.2122 47.1248C76.3882 47.1248 76.5349 47.0661 76.6522 46.9488C76.7695 46.8261 76.8282 46.6741 76.8282 46.4928C76.8282 46.3115 76.7695 46.1621 76.6522 46.0448C76.5349 45.9275 76.3882 45.8688 76.2122 45.8688C76.0362 45.8688 75.8895 45.9275 75.7722 46.0448ZM74.9322 46.4928C74.9322 46.1461 75.0575 45.8501 75.3082 45.6048C75.5642 45.3595 75.8655 45.2368 76.2122 45.2368C76.5589 45.2368 76.8602 45.3595 77.1162 45.6048C77.3722 45.8501 77.5002 46.1461 77.5002 46.4928C77.5002 46.8448 77.3722 47.1435 77.1162 47.3888C76.8602 47.6341 76.5589 47.7568 76.2122 47.7568C75.8655 47.7568 75.5642 47.6341 75.3082 47.3888C75.0575 47.1435 74.9322 46.8448 74.9322 46.4928ZM78.9402 48.8288C78.8229 48.9461 78.7642 49.0955 78.7642 49.2768C78.7642 49.4581 78.8229 49.6101 78.9402 49.7328C79.0575 49.8501 79.2042 49.9088 79.3802 49.9088C79.5562 49.9088 79.7029 49.8501 79.8202 49.7328C79.9375 49.6101 79.9962 49.4581 79.9962 49.2768C79.9962 49.0955 79.9375 48.9461 79.8202 48.8288C79.7029 48.7115 79.5562 48.6528 79.3802 48.6528C79.2042 48.6528 79.0575 48.7115 78.9402 48.8288ZM78.1002 49.2768C78.1002 48.9301 78.2255 48.6341 78.4762 48.3888C78.7322 48.1435 79.0335 48.0208 79.3802 48.0208C79.7269 48.0208 80.0282 48.1435 80.2842 48.3888C80.5402 48.6341 80.6682 48.9301 80.6682 49.2768C80.6682 49.6288 80.5402 49.9275 80.2842 50.1728C80.0282 50.4181 79.7269 50.5408 79.3802 50.5408C79.0335 50.5408 78.7322 50.4181 78.4762 50.1728C78.2255 49.9275 78.1002 49.6288 78.1002 49.2768ZM76.3082 50.4768H75.5722L79.3002 45.2928H80.0202L76.3082 50.4768Z" fill="#8395A7"/>
<path d="M65.824 99.9353V100.687C65.6907 100.794 65.56 100.909 65.432 101.031C65.304 101.154 65.1333 101.351 64.92 101.623C64.712 101.895 64.528 102.183 64.368 102.487C64.208 102.791 64.056 103.178 63.912 103.647C63.7733 104.111 63.68 104.602 63.632 105.119H62.824C62.856 104.709 62.92 104.311 63.016 103.927C63.112 103.538 63.224 103.199 63.352 102.911C63.48 102.623 63.616 102.354 63.76 102.103C63.9093 101.847 64.0533 101.634 64.192 101.463C64.336 101.287 64.464 101.138 64.576 101.015C64.6933 100.893 64.7867 100.802 64.856 100.743L64.96 100.655H62.04V99.9353H65.824ZM66.03 103.711L66.782 103.487C66.8033 103.807 66.9207 104.066 67.134 104.263C67.3527 104.461 67.6247 104.559 67.95 104.559C68.2647 104.559 68.5287 104.463 68.742 104.271C68.9553 104.079 69.062 103.826 69.062 103.511C69.062 103.17 68.9553 102.906 68.742 102.719C68.5287 102.533 68.262 102.439 67.942 102.439C67.5527 102.439 67.238 102.565 66.998 102.815C66.9233 102.789 66.8007 102.741 66.63 102.671C66.4593 102.602 66.326 102.549 66.23 102.511L66.902 99.9353H69.638V100.655H67.422L67.038 102.143C67.2673 101.887 67.6193 101.759 68.094 101.759C68.6113 101.759 69.0327 101.914 69.358 102.223C69.6887 102.533 69.854 102.951 69.854 103.479C69.854 103.981 69.678 104.402 69.326 104.743C68.974 105.079 68.5153 105.247 67.95 105.247C67.4167 105.247 66.9713 105.098 66.614 104.799C66.262 104.501 66.0673 104.138 66.03 103.711ZM71.3347 100.687C71.2174 100.805 71.1587 100.954 71.1587 101.135C71.1587 101.317 71.2174 101.469 71.3347 101.591C71.452 101.709 71.5987 101.767 71.7747 101.767C71.9507 101.767 72.0974 101.709 72.2147 101.591C72.332 101.469 72.3907 101.317 72.3907 101.135C72.3907 100.954 72.332 100.805 72.2147 100.687C72.0974 100.57 71.9507 100.511 71.7747 100.511C71.5987 100.511 71.452 100.57 71.3347 100.687ZM70.4947 101.135C70.4947 100.789 70.62 100.493 70.8707 100.247C71.1267 100.002 71.428 99.8793 71.7747 99.8793C72.1214 99.8793 72.4227 100.002 72.6787 100.247C72.9347 100.493 73.0627 100.789 73.0627 101.135C73.0627 101.487 72.9347 101.786 72.6787 102.031C72.4227 102.277 72.1214 102.399 71.7747 102.399C71.428 102.399 71.1267 102.277 70.8707 102.031C70.62 101.786 70.4947 101.487 70.4947 101.135ZM74.5027 103.471C74.3854 103.589 74.3267 103.738 74.3267 103.919C74.3267 104.101 74.3854 104.253 74.5027 104.375C74.62 104.493 74.7667 104.551 74.9427 104.551C75.1187 104.551 75.2654 104.493 75.3827 104.375C75.5 104.253 75.5587 104.101 75.5587 103.919C75.5587 103.738 75.5 103.589 75.3827 103.471C75.2654 103.354 75.1187 103.295 74.9427 103.295C74.7667 103.295 74.62 103.354 74.5027 103.471ZM73.6627 103.919C73.6627 103.573 73.788 103.277 74.0387 103.031C74.2947 102.786 74.596 102.663 74.9427 102.663C75.2894 102.663 75.5907 102.786 75.8467 103.031C76.1027 103.277 76.2307 103.573 76.2307 103.919C76.2307 104.271 76.1027 104.57 75.8467 104.815C75.5907 105.061 75.2894 105.183 74.9427 105.183C74.596 105.183 74.2947 105.061 74.0387 104.815C73.788 104.57 73.6627 104.271 73.6627 103.919ZM71.8707 105.119H71.1347L74.8627 99.9353H75.5827L71.8707 105.119Z" fill="#8395A7"/>
<rect x="92.8411" y="262.523" width="14.7682" height="5.90728" fill="#6FCF97"/>
<path d="M100.964 124.44L276.705 50.5994H450.232" stroke="#2968EA" stroke-width="2"/>
<rect x="270.06" y="45.4304" width="11.8146" height="11.8146" rx="5.90728" fill="#EB5757"/>
<rect x="442.848" y="43.9536" width="11.8146" height="11.8146" rx="5.90728" fill="#EB5757"/>
<rect x="122.377" y="194.589" width="14.7682" height="73.8411" fill="#56CCF2"/>
<rect x="137.146" y="262.523" width="14.7682" height="5.90728" fill="#DC957E"/>
<rect x="107.609" y="194.589" width="14.7682" height="73.8411" fill="#D68AFA"/>
<rect x="277.444" y="261.046" width="14.7682" height="5.90728" fill="#6FCF97"/>
<rect x="306.98" y="119.271" width="14.7682" height="147.682" fill="#56CCF2"/>
<rect x="321.748" y="119.271" width="14.7682" height="147.682" fill="#DC957E"/>
<rect x="292.212" y="193.113" width="14.7682" height="73.8411" fill="#D68AFA"/>
<rect x="364.576" y="262.523" width="14.7682" height="5.90728" fill="#6FCF97"/>
<rect x="394.113" y="120.748" width="14.7682" height="147.682" fill="#56CCF2"/>
<rect x="408.881" y="49.861" width="14.7682" height="218.57" fill="#DC957E"/>
<rect x="379.344" y="122.225" width="14.7682" height="146.205" fill="#D68AFA"/>
<path d="M100.225 114.841L107.899 128.132H92.5514L100.225 114.841Z" fill="#2968EA"/>
<path d="M100.225 114.841L107.899 128.132H92.5514L100.225 114.841Z" fill="#2968EA"/>
<path d="M100.225 114.841L107.899 128.132H92.5514L100.225 114.841Z" fill="#2968EA"/>
<path d="M275.967 42.4768L283.641 55.7682H268.293L275.967 42.4768Z" fill="#2968EA"/>
<path d="M275.967 42.4768L283.641 55.7682H268.293L275.967 42.4768Z" fill="#2968EA"/>
<path d="M275.967 42.4768L283.641 55.7682H268.293L275.967 42.4768Z" fill="#2968EA"/>
<path d="M450.232 41L457.906 54.2914H442.558L450.232 41Z" fill="#2968EA"/>
<path d="M450.232 41L457.906 54.2914H442.558L450.232 41Z" fill="#2968EA"/>
<path d="M450.232 41L457.906 54.2914H442.558L450.232 41Z" fill="#2968EA"/>
</svg>
