<svg width="270" height="59" viewBox="0 0 270 59" fill="none" xmlns="http://www.w3.org/2000/svg">
<path d="M25.1606 48.5468L29.1326 46.2166L33.2326 48.5821C35.1979 49.7193 37.5343 50.0291 39.7281 49.4436C40.8143 49.1536 41.8328 48.6526 42.7253 47.969C43.6179 47.2855 44.3671 46.4328 44.9302 45.4597C45.4932 44.4866 45.8591 43.4121 46.0069 42.2976C46.1547 41.1831 46.0816 40.0504 45.7916 38.9642C45.5017 37.878 45.0006 36.8595 44.3171 35.967C43.6335 35.0744 42.7808 34.3252 41.8077 33.7621L34.4286 29.49L31.9174 33.8416L39.2392 38.0695C39.6411 38.3014 39.9934 38.6101 40.2761 38.9781C40.5587 39.3461 40.766 39.7661 40.8863 40.2143C41.0066 40.6624 41.0374 41.1299 40.9771 41.5899C40.9167 42.05 40.7663 42.4936 40.5345 42.8955C40.3027 43.2975 39.9939 43.6498 39.6259 43.9324C39.2579 44.215 38.8379 44.4224 38.3898 44.5427C37.9416 44.663 37.4742 44.6938 37.0141 44.6334C36.5541 44.5731 36.1104 44.4227 35.7085 44.1909L30.92 41.4325L29.1547 40.413L27.5879 41.3178L22.7332 44.1291C22.1016 44.4978 21.371 44.6612 20.6424 44.5968C19.9138 44.5324 19.2232 44.2433 18.6661 43.7694C18.1089 43.2956 17.7126 42.6604 17.532 41.9516C17.3514 41.2429 17.3954 40.4955 17.6579 39.8128C15.959 40.3545 14.1419 40.4065 12.4148 39.9629C12.193 41.5493 12.4215 43.1662 13.0741 44.6291C13.7267 46.092 14.7772 47.3422 16.1058 48.237C17.4345 49.1318 18.9878 49.6353 20.5888 49.6901C22.1897 49.7449 23.7739 49.3487 25.1606 48.5468Z" fill="#6C9CD2"/>
<path d="M14.648 16.1396V20.7427L10.548 23.1259C9.57436 23.6878 8.72089 24.436 8.03636 25.3277C7.35183 26.2194 6.84964 27.2373 6.55846 28.3231C6.26729 29.4089 6.19283 30.5414 6.33934 31.656C6.48585 32.7706 6.85046 33.8454 7.41235 34.8191C7.97425 35.7928 8.72242 36.6462 9.61415 37.3308C10.5059 38.0153 11.5237 38.5175 12.6095 38.8087C13.6953 39.0998 14.8279 39.1743 15.9424 39.0278C17.057 38.8813 18.1319 38.5167 19.1055 37.9548L26.4847 33.6782L23.969 29.3267L16.6649 33.5414C15.8532 34.0096 14.8887 34.1362 13.9837 33.8933C13.0786 33.6503 12.3071 33.0579 11.8389 32.2461C11.3707 31.4344 11.2442 30.4699 11.4871 29.5648C11.73 28.6598 12.3225 27.8883 13.1343 27.4201L17.9051 24.6662L19.6704 23.6467V16.2234C19.6733 15.4946 19.9016 14.7845 20.324 14.1906C20.7465 13.5967 21.3424 13.1481 22.0299 12.9063C22.7175 12.6646 23.463 12.6415 24.1642 12.8403C24.8654 13.0392 25.4879 13.4501 25.9462 14.0168C26.3243 12.2732 27.1889 10.6725 28.4398 9.4004C27.1771 8.41991 25.6648 7.81312 24.0745 7.64896C22.4843 7.48479 20.8799 7.76983 19.4436 8.47169C18.0072 9.17355 16.7964 10.2641 15.9488 11.6195C15.1011 12.975 14.6504 14.5409 14.648 16.1396Z" fill="#9CC0E7"/>
<path d="M29.2782 0C23.4873 6.57904e-08 17.8265 1.71725 13.0116 4.93457C8.19678 8.15189 4.44412 12.7248 2.22826 18.0749C0.0123933 23.4251 -0.567154 29.3122 0.562908 34.9917C1.69297 40.6712 4.48188 45.8881 8.57695 49.9825C12.672 54.077 17.8893 56.8651 23.569 57.9943C29.2487 59.1235 35.1357 58.5431 40.4855 56.3264C45.8353 54.1097 50.4076 50.3564 53.6242 45.541C56.8408 40.7257 58.5572 35.0646 58.5564 29.2738C58.547 21.512 55.4592 14.0708 49.9704 8.58285C44.4816 3.09485 37.04 0.00817574 29.2782 0ZM29.2782 2.52444C34.57 2.52356 39.7431 4.09201 44.1434 7.03141C48.5437 9.97082 51.9735 14.1491 53.999 19.0379C56.0245 23.9267 56.5546 29.3064 55.5225 34.4965C54.4903 39.6866 51.9422 44.4541 48.2003 48.1959C44.4585 51.9378 39.691 54.4859 34.5009 55.5181C29.3108 56.5502 23.9311 56.02 19.0423 53.9946C14.1536 51.9691 9.97524 48.5393 7.03584 44.139C4.09644 39.7387 2.52799 34.5655 2.52886 29.2738C2.53003 22.1798 5.34863 15.3766 10.3648 10.3604C15.3811 5.34421 22.1842 2.52561 29.2782 2.52444Z" fill="#6C9CD2"/>
<path d="M47.7832 23.1964L43.7847 20.8882V16.1527C43.7847 13.8831 42.8831 11.7065 41.2783 10.1016C39.6734 8.49681 37.4968 7.59521 35.2272 7.59521C32.9576 7.59521 30.781 8.49681 29.1762 10.1016C27.5713 11.7065 26.6697 13.8831 26.6697 16.1527V24.6881H31.6921V16.2366C31.6921 15.3002 32.0641 14.4021 32.7262 13.74C33.3884 13.0779 34.2864 12.7059 35.2228 12.7059C36.1592 12.7059 37.0573 13.0779 37.7194 13.74C38.3815 14.4021 38.7535 15.3002 38.7535 16.2366V23.7878L40.3202 24.6705L45.1749 27.4862C45.801 27.8461 46.3016 28.3893 46.6094 29.0426C46.9171 29.6959 47.0171 30.4279 46.8959 31.1398C46.7747 31.8517 46.4381 32.5093 45.9315 33.0239C45.4249 33.5386 44.7727 33.8855 44.0628 34.0179C45.37 35.2188 46.3213 36.7564 46.8123 38.4622C48.2801 37.8452 49.5463 36.8304 50.4681 35.5322C51.3899 34.234 51.9306 32.7041 52.0293 31.1149C52.128 29.5258 51.7806 27.9407 51.0265 26.5384C50.2723 25.1362 49.1414 23.9725 47.7611 23.1788L47.7832 23.1964Z" fill="#B1ACAC"/>
<path d="M71.9951 17.0488L79.0962 35.9777L86.2238 17.0488H90.3238V39.5569H87.486V20.8355H87.4242L80.3893 39.5746H77.834L70.7991 20.8355H70.7329V39.5746H67.8951V17.0665L71.9951 17.0488Z" fill="#6D9BD2"/>
<path d="M100.006 26.8289H100.889C101.439 26.8312 101.987 26.7509 102.513 26.5906C103.004 26.4462 103.464 26.2112 103.868 25.8977C104.26 25.5877 104.578 25.1942 104.799 24.7458C105.037 24.2551 105.156 23.7155 105.148 23.1703C105.184 22.6628 105.1 22.1541 104.902 21.6854C104.704 21.2168 104.398 20.8016 104.009 20.4737C103.194 19.8603 102.191 19.5483 101.172 19.591C100.524 19.577 99.8828 19.7114 99.2958 19.9838C98.7803 20.2327 98.3277 20.5947 97.9718 21.043C97.617 21.5032 97.3547 22.0277 97.1995 22.5877C97.0296 23.1938 96.9449 23.8206 96.9479 24.4501H94.269C94.2946 23.4513 94.4702 22.4619 94.7898 21.5153C95.0738 20.6763 95.5241 19.9032 96.1138 19.2424C96.7055 18.5971 97.4337 18.092 98.2455 17.7639C99.1753 17.3851 100.172 17.1975 101.176 17.2122C102.087 17.2039 102.995 17.3258 103.872 17.5741C104.658 17.7928 105.392 18.1631 106.035 18.6642C106.655 19.1614 107.147 19.8001 107.469 20.5267C107.835 21.3713 108.013 22.2854 107.99 23.2056C108.003 24.1734 107.692 25.1178 107.107 25.8889C106.533 26.654 105.773 27.2612 104.901 27.6542V27.716C105.511 27.8189 106.094 28.042 106.617 28.3723C107.139 28.7027 107.591 29.1337 107.946 29.6402C108.623 30.6813 108.969 31.9029 108.939 33.1444C108.96 34.1609 108.751 35.1689 108.326 36.0925C107.938 36.9164 107.373 37.6443 106.671 38.2242C105.947 38.8052 105.116 39.2386 104.226 39.4997C103.258 39.7926 102.253 39.9413 101.242 39.941C100.193 39.956 99.1492 39.7964 98.1528 39.4688C97.2633 39.1773 96.4504 38.6902 95.774 38.0432C95.1079 37.404 94.595 36.6225 94.2734 35.7571C93.9113 34.7689 93.7449 33.7196 93.7836 32.6678H96.4669C96.4572 33.9569 96.9044 35.2077 97.7291 36.1985C98.5294 37.1106 99.696 37.5681 101.229 37.571C101.862 37.5736 102.491 37.4722 103.091 37.2709C103.653 37.0828 104.177 36.7942 104.636 36.4191C105.081 36.0455 105.442 35.5824 105.695 35.0598C105.963 34.4933 106.098 33.8727 106.088 33.2459C106.099 32.6105 105.969 31.9806 105.708 31.4012C105.471 30.8845 105.128 30.423 104.702 30.0463C104.266 29.6685 103.755 29.3886 103.202 29.2254C102.594 29.041 101.961 28.9502 101.326 28.9562C100.787 28.9536 100.249 28.9861 99.7151 29.0533V26.798C99.8108 26.8187 99.9085 26.829 100.006 26.8289Z" fill="#9DBEE5"/>
<path d="M116.278 17.0488H117.669V39.5569H116.278V17.0488Z" fill="#2B2523"/>
<path d="M122.369 23.3598H123.578V26.8287H123.64C123.836 26.2394 124.135 25.6895 124.523 25.2046C124.909 24.7327 125.366 24.3233 125.878 23.9909C126.397 23.6523 126.966 23.3963 127.563 23.2318C128.17 23.0648 128.797 22.9802 129.426 22.9803C130.244 22.96 131.061 23.0779 131.84 23.3289C132.437 23.5211 132.99 23.8318 133.464 24.2425C133.871 24.6029 134.207 25.0353 134.457 25.5179C134.692 25.9731 134.867 26.4567 134.978 26.9567C135.08 27.4183 135.144 27.8878 135.168 28.3601C135.19 28.8015 135.199 29.2075 135.199 29.5429V39.5745H134.003V29.3222C133.997 28.8163 133.964 28.311 133.905 27.8085C133.844 27.1886 133.656 26.5878 133.354 26.0431C133.017 25.4602 132.539 24.9714 131.964 24.622C131.181 24.1808 130.288 23.9725 129.391 24.0218C128.543 24.0054 127.702 24.1773 126.928 24.5249C126.225 24.8556 125.602 25.3343 125.101 25.9284C124.58 26.561 124.189 27.2898 123.949 28.0733C123.685 28.9594 123.56 29.8809 123.578 30.8051V39.5745H122.378L122.369 23.3598Z" fill="#2B2523"/>
<path d="M137.922 24.4017V23.3601H140.826V20.0148C140.812 19.5117 140.909 19.0116 141.108 18.5496C141.281 18.1604 141.546 17.8195 141.88 17.5566C142.214 17.2989 142.593 17.1059 142.997 16.9873C143.443 16.8582 143.905 16.7943 144.37 16.7975C144.847 16.8101 145.322 16.8632 145.791 16.9564V17.9979C145.322 17.9048 144.847 17.8516 144.37 17.839C143.776 17.8129 143.188 17.9667 142.684 18.2804C142.242 18.5849 142.004 19.1895 142.004 20.0942V23.3425H145.38V24.384H142.004V39.5748H140.808V24.4017H137.922Z" fill="#2B2523"/>
<path d="M147.481 31.4673C147.473 30.3598 147.639 29.258 147.971 28.2014C148.274 27.2199 148.761 26.3048 149.405 25.5049C150.037 24.725 150.835 24.095 151.74 23.6601C152.742 23.2119 153.828 22.9802 154.926 22.9802C156.024 22.9802 157.11 23.2119 158.113 23.6601C159.017 24.0961 159.814 24.726 160.447 25.5049C161.089 26.3069 161.575 27.2214 161.882 28.2014C162.214 29.258 162.379 30.3598 162.371 31.4673C162.378 32.5791 162.213 33.6852 161.882 34.7464C161.581 35.7289 161.094 36.6444 160.447 37.443C159.81 38.2157 159.014 38.8419 158.113 39.2789C157.109 39.7242 156.024 39.9542 154.926 39.9542C153.828 39.9542 152.743 39.7242 151.74 39.2789C150.838 38.8444 150.042 38.2195 149.405 37.4474C148.755 36.651 148.268 35.7348 147.971 34.7508C147.639 33.6882 147.474 32.5805 147.481 31.4673ZM148.677 31.4673C148.674 32.4123 148.812 33.3525 149.087 34.2565C149.343 35.1158 149.75 35.9227 150.288 36.6397C150.816 37.3314 151.491 37.8968 152.265 38.2948C153.1 38.7014 154.017 38.9127 154.946 38.9127C155.875 38.9127 156.792 38.7014 157.627 38.2948C158.387 37.8901 159.047 37.3218 159.56 36.6309C160.098 35.9139 160.505 35.1069 160.761 34.2477C161.307 32.4269 161.307 30.4857 160.761 28.6648C160.504 27.8073 160.097 27.002 159.56 26.286C159.041 25.5934 158.373 25.0263 157.605 24.6266C156.769 24.2238 155.852 24.0146 154.924 24.0146C153.996 24.0146 153.079 24.2238 152.243 24.6266C151.476 25.0274 150.808 25.5943 150.288 26.286C149.748 27.0087 149.342 27.8216 149.087 28.6869C148.814 29.5883 148.675 30.5253 148.677 31.4673Z" fill="#2B2523"/>
<path d="M167.323 26.9567H167.416C167.574 26.4103 167.848 25.9044 168.219 25.4738C168.625 24.999 169.105 24.5935 169.64 24.2734C170.221 23.9286 170.849 23.6686 171.503 23.501C172.197 23.3231 172.913 23.2429 173.63 23.2627V24.4631C172.905 24.3861 172.172 24.4506 171.472 24.6529C170.591 24.9043 169.79 25.3821 169.151 26.0387C168.877 26.3305 168.619 26.637 168.378 26.9567C168.153 27.2563 167.967 27.5842 167.827 27.932C167.671 28.3196 167.554 28.7218 167.478 29.1325C167.385 29.6528 167.334 30.1796 167.323 30.708V39.5745H166.123V23.3598H167.323V26.9567Z" fill="#2B2523"/>
<path d="M175.872 23.3599H177.068V26.6699H177.134C177.264 26.1548 177.488 25.6683 177.796 25.2356C178.113 24.7808 178.502 24.3812 178.948 24.0528C179.408 23.7113 179.919 23.4446 180.462 23.2628C181.031 23.0707 181.627 22.9752 182.227 22.9804C182.913 22.9667 183.596 23.0681 184.249 23.2805C184.775 23.4571 185.266 23.7244 185.701 24.0705C186.082 24.3758 186.402 24.7501 186.645 25.1738C186.867 25.5614 187.026 25.9813 187.117 26.4184H187.184C187.571 25.3946 188.235 24.499 189.103 23.8321C190.052 23.2088 191.173 22.9 192.307 22.9495C193 22.9423 193.688 23.0542 194.342 23.2805C194.953 23.4992 195.506 23.8556 195.957 24.322C196.434 24.8082 196.796 25.3948 197.017 26.0388C197.284 26.8316 197.413 27.6648 197.396 28.5015V39.5746H196.196V28.4706C196.232 27.6332 196.067 26.7991 195.715 26.0388C195.448 25.517 195.064 25.0639 194.594 24.7148C194.214 24.4275 193.775 24.2285 193.309 24.1323C192.982 24.069 192.65 24.0321 192.316 24.0219C191.62 24.0127 190.928 24.1417 190.282 24.4015C189.665 24.651 189.114 25.0391 188.671 25.5357C188.195 26.0827 187.837 26.721 187.616 27.4114C187.351 28.2428 187.223 29.1118 187.237 29.9844V39.5746H186.027V28.4706C186.068 27.6426 185.917 26.8163 185.586 26.0565C185.332 25.5267 184.953 25.0663 184.483 24.7148C184.106 24.4393 183.676 24.2454 183.22 24.1455C182.882 24.0752 182.538 24.0338 182.192 24.0219C180.906 24.0381 179.676 24.5467 178.754 25.443C178.22 25.9703 177.802 26.6031 177.527 27.301C177.192 28.1549 177.03 29.0671 177.051 29.9844V39.5746H175.854L175.872 23.3599Z" fill="#2B2523"/>
<path d="M212.653 36.357H212.591C212.392 36.855 212.115 37.3182 211.77 37.7296C211.388 38.1768 210.942 38.5649 210.446 38.8814C209.9 39.2297 209.305 39.4944 208.681 39.667C207.983 39.8621 207.261 39.9572 206.536 39.9495C204.809 39.9495 203.473 39.5773 202.529 38.8329C201.584 38.0885 201.111 36.9366 201.108 35.3772C201.065 34.6301 201.23 33.8857 201.583 33.2261C201.937 32.5666 202.466 32.0174 203.111 31.6391C203.717 31.2829 204.378 31.0308 205.066 30.8933C205.738 30.7519 206.418 30.6473 207.101 30.5799L208.963 30.421C209.65 30.3855 210.331 30.285 210.998 30.1209C211.411 30.0302 211.795 29.841 212.119 29.5693C212.375 29.3215 212.541 28.9953 212.591 28.6425C212.659 28.1719 212.69 27.6968 212.684 27.2214C212.687 26.7978 212.602 26.3782 212.432 25.99C212.252 25.5958 211.981 25.2496 211.642 24.9794C211.232 24.6538 210.761 24.4137 210.257 24.2732C209.578 24.0915 208.876 24.0068 208.173 24.0217C206.908 23.9589 205.66 24.338 204.643 25.0941C203.76 25.8091 203.272 26.8918 203.178 28.3424H201.977C202.062 26.5564 202.636 25.2162 203.698 24.3218C204.76 23.4274 206.268 22.986 208.222 22.9978C210.182 22.9978 211.603 23.3817 212.499 24.1497C212.932 24.5194 213.276 24.9821 213.505 25.5032C213.734 26.0244 213.843 26.5906 213.823 27.1596V36.5777C213.823 36.8072 213.823 37.0411 213.823 37.2706C213.832 37.4848 213.869 37.6969 213.933 37.9017C213.995 38.076 214.105 38.2292 214.251 38.343C214.436 38.4691 214.658 38.5296 214.882 38.5151C215.178 38.5064 215.473 38.4754 215.764 38.4224V39.4287C215.445 39.5135 215.115 39.5565 214.785 39.5567C214.392 39.5707 214 39.5062 213.633 39.3669C213.377 39.2603 213.154 39.0865 212.988 38.8638C212.835 38.6415 212.733 38.3884 212.688 38.1223C212.634 37.815 212.607 37.5033 212.609 37.1911L212.653 36.357ZM212.653 30.3637C212.306 30.7478 211.84 31.003 211.329 31.0875C210.668 31.2238 209.999 31.3182 209.325 31.3699L207.308 31.5597C206.717 31.6259 206.13 31.7142 205.543 31.8289C204.983 31.9323 204.445 32.1293 203.95 32.4115C203.47 32.6819 203.067 33.0709 202.78 33.5413C202.463 34.1027 202.31 34.7419 202.339 35.3861C202.339 36.5865 202.714 37.4736 203.473 38.0341C204.389 38.6646 205.488 38.9749 206.598 38.9167C207.728 38.9733 208.852 38.7167 209.846 38.1753C210.573 37.7471 211.198 37.1658 211.678 36.4717C212.064 35.9089 212.336 35.2764 212.481 34.6093C212.569 34.2097 212.627 33.804 212.653 33.3956V30.3637Z" fill="#2B2523"/>
<path d="M224.578 24.4012H221.047V35.7479C221.026 36.272 221.101 36.7954 221.268 37.2926C221.392 37.6519 221.629 37.9614 221.943 38.1753C222.277 38.3824 222.655 38.5066 223.046 38.5372C223.545 38.5799 224.047 38.5902 224.547 38.5681V39.6096C223.959 39.6552 223.369 39.6552 222.782 39.6096C222.242 39.5697 221.719 39.4082 221.25 39.1374C220.791 38.8542 220.424 38.4431 220.195 37.9546C219.903 37.2689 219.789 36.5204 219.864 35.7788V24.4012H216.868V23.3597H219.864V18.3108H221.065V23.3597H224.596L224.578 24.4012Z" fill="#2B2523"/>
<path d="M228.016 20.3015V17.0488H229.216V20.3015H228.016ZM228.016 39.579V23.3599H229.216V39.5746L228.016 39.579Z" fill="#2B2523"/>
<path d="M233.219 31.4673C233.212 30.3598 233.377 29.258 233.709 28.2014C234.015 27.2203 234.503 26.3056 235.148 25.5049C235.779 24.7251 236.574 24.0951 237.478 23.6601C238.481 23.2119 239.566 22.9802 240.664 22.9802C241.763 22.9802 242.848 23.2119 243.851 23.6601C244.756 24.095 245.553 24.725 246.186 25.5049C246.829 26.3058 247.315 27.2206 247.62 28.2014C247.952 29.258 248.117 30.3598 248.11 31.4673C248.117 32.5791 247.951 33.6852 247.62 34.7464C247.321 35.7296 246.834 36.6454 246.186 37.443C245.549 38.2167 244.753 38.8431 243.851 39.2789C242.848 39.7242 241.762 39.9542 240.664 39.9542C239.567 39.9542 238.481 39.7242 237.478 39.2789C236.578 38.8444 235.783 38.2194 235.148 37.4474C234.498 36.6501 234.01 35.7343 233.709 34.7508C233.377 33.6882 233.212 32.5805 233.219 31.4673ZM234.42 31.4673C234.416 32.4123 234.555 33.3525 234.83 34.2565C235.085 35.1134 235.492 35.9176 236.03 36.6309C236.551 37.3211 237.219 37.8865 237.986 38.2859C238.821 38.6925 239.738 38.9038 240.667 38.9038C241.596 38.9038 242.513 38.6925 243.348 38.2859C244.114 37.8853 244.781 37.3201 245.303 36.6309C245.841 35.9139 246.248 35.1069 246.503 34.2477C247.05 32.4269 247.05 30.4857 246.503 28.6648C246.247 27.8073 245.84 27.002 245.303 26.286C244.783 25.5943 244.115 25.0274 243.348 24.6266C242.511 24.2238 241.595 24.0146 240.667 24.0146C239.738 24.0146 238.822 24.2238 237.986 24.6266C237.218 25.0263 236.55 25.5934 236.03 26.286C235.489 27.0076 235.083 27.8209 234.83 28.6869C234.556 29.5883 234.418 30.5253 234.42 31.4673Z" fill="#2B2523"/>
<path d="M251.234 23.36H252.448V26.8289H252.514C252.708 26.2387 253.007 25.6885 253.397 25.2048C253.786 24.7338 254.244 24.3245 254.756 23.9911C255.268 23.6538 255.83 23.3977 256.42 23.232C257.027 23.0647 257.653 22.9801 258.283 22.9804C259.101 22.9605 259.917 23.0784 260.697 23.3291C261.294 23.5213 261.846 23.832 262.321 24.2427C262.726 24.604 263.063 25.0362 263.314 25.5181C263.549 25.9733 263.724 26.4569 263.835 26.9569C263.937 27.4185 264.001 27.888 264.024 28.3603C264.024 28.8016 264.055 29.2077 264.055 29.5431V39.5746H262.855V29.3224C262.855 28.9208 262.824 28.4397 262.762 27.8086C262.701 27.1887 262.513 26.588 262.21 26.0433C261.879 25.461 261.405 24.9722 260.833 24.6222C260.052 24.1808 259.161 23.9725 258.265 24.022C257.417 24.0056 256.576 24.1774 255.802 24.5251C255.099 24.8557 254.476 25.3345 253.975 25.9286C253.451 26.559 253.06 27.2885 252.823 28.0734C252.551 28.9581 252.417 29.8797 252.426 30.8053V39.5746H251.23L251.234 23.36Z" fill="#2B2523"/>
<path d="M265.79 21.7005V21.4534H267.555V21.7005H266.823V23.6556H266.527V21.7005H265.79Z" fill="#2B2523"/>
<path d="M268.204 21.4534L268.901 23.307L269.598 21.4534H270V23.6601H269.722V21.8241L269.034 23.6557H268.778L268.089 21.8241V23.6557H267.811V21.449L268.204 21.4534Z" fill="#2B2523"/>
</svg>
