<svg width="36" height="36" viewBox="0 0 36 36" fill="none" xmlns="http://www.w3.org/2000/svg">
<path d="M15.4686 29.8464L17.9106 28.4138L20.4313 29.8681C21.6395 30.5672 23.0759 30.7577 24.4246 30.3977C25.0924 30.2194 25.7186 29.9114 26.2673 29.4911C26.8161 29.0709 27.2767 28.5467 27.6228 27.9484C27.969 27.3502 28.1939 26.6896 28.2848 26.0044C28.3757 25.3192 28.3307 24.6229 28.1524 23.9551C27.9742 23.2873 27.6661 22.6611 27.2459 22.1124C26.8257 21.5636 26.3014 21.103 25.7032 20.7568L21.1666 18.1304L19.6227 20.8057L24.1241 23.405C24.3712 23.5475 24.5878 23.7373 24.7615 23.9636C24.9353 24.1898 25.0628 24.4481 25.1367 24.7236C25.2107 24.9991 25.2296 25.2865 25.1925 25.5693C25.1554 25.8521 25.0629 26.1249 24.9204 26.372C24.7779 26.6191 24.5881 26.8357 24.3618 27.0095C24.1356 27.1832 23.8774 27.3107 23.6018 27.3847C23.3263 27.4586 23.039 27.4776 22.7561 27.4405C22.4733 27.4033 22.2005 27.3109 21.9534 27.1684L19.0095 25.4725L17.9242 24.8458L16.961 25.402L13.9763 27.1304C13.588 27.357 13.1388 27.4575 12.6909 27.4179C12.243 27.3783 11.8184 27.2006 11.4759 26.9093C11.1333 26.6179 10.8897 26.2274 10.7787 25.7917C10.6676 25.356 10.6947 24.8965 10.856 24.4768C9.81159 24.8098 8.69444 24.8418 7.63265 24.569C7.4963 25.5444 7.63674 26.5384 8.03795 27.4378C8.43916 28.3372 9.08501 29.1057 9.90186 29.6559C10.7187 30.206 11.6737 30.5156 12.6579 30.5492C13.6422 30.5829 14.6161 30.3394 15.4686 29.8464V29.8464Z" fill="#40A3F8"/>
<path d="M9.00556 9.92257V12.7525L6.4849 14.2177C5.88629 14.5632 5.36159 15.0231 4.94074 15.5714C4.5199 16.1196 4.21115 16.7453 4.03214 17.4129C3.85313 18.0804 3.80735 18.7767 3.89743 19.462C3.9875 20.1472 4.21166 20.808 4.55711 21.4066C4.90256 22.0052 5.36252 22.5299 5.91075 22.9508C6.45898 23.3716 7.08474 23.6803 7.75229 23.8594C8.41983 24.0384 9.11611 24.0841 9.80135 23.9941C10.4866 23.904 11.1474 23.6798 11.746 23.3344L16.2826 20.7052L14.736 18.0299L10.2455 20.6211C9.74648 20.9089 9.15353 20.9867 8.59711 20.8374C8.04069 20.6881 7.56639 20.3238 7.27854 19.8247C6.9907 19.3257 6.91289 18.7327 7.06224 18.1763C7.21158 17.6199 7.57585 17.1456 8.07489 16.8578L11.008 15.1647L12.0933 14.5379V9.97412C12.095 9.52605 12.2354 9.08949 12.4951 8.72436C12.7548 8.35923 13.1212 8.08342 13.5439 7.93479C13.9666 7.78616 14.4249 7.77199 14.856 7.89422C15.2871 8.01645 15.6698 8.26909 15.9516 8.61747C16.184 7.54553 16.7156 6.56145 17.4846 5.77937C16.7083 5.17657 15.7786 4.80352 14.8009 4.70259C13.8232 4.60166 12.8369 4.7769 11.9538 5.2084C11.0708 5.6399 10.3264 6.31037 9.80523 7.14368C9.28408 7.97698 9.00703 8.93972 9.00556 9.92257V9.92257Z" fill="#8AC4F5"/>
<path d="M18 0C14.4398 4.04474e-08 10.9596 1.05575 7.99946 3.03373C5.03932 5.01172 2.73221 7.82309 1.36992 11.1123C0.00761932 14.4015 -0.348682 18.0209 0.346072 21.5126C1.04083 25.0044 2.75543 28.2116 5.27304 30.7289C7.79066 33.2461 10.9982 34.9602 14.49 35.6545C17.9819 36.3487 21.6012 35.9918 24.8902 34.629C28.1792 33.2663 30.9902 30.9587 32.9678 27.9983C34.9453 25.0378 36.0005 21.5575 36 17.9973C35.9943 13.2254 34.0959 8.65065 30.7214 5.27667C27.3469 1.90269 22.7719 0.00502639 18 0V0ZM18 1.552C21.2533 1.55147 24.4338 2.51574 27.139 4.32286C29.8443 6.12998 31.9529 8.69878 33.1982 11.7044C34.4434 14.71 34.7694 18.0173 34.1348 21.2082C33.5002 24.399 31.9337 27.33 29.6332 29.6305C27.3327 31.9309 24.4017 33.4975 21.2109 34.1321C18.02 34.7666 14.7127 34.4407 11.7071 33.1954C8.7015 31.9502 6.1327 29.8416 4.32558 27.1363C2.51846 24.431 1.55419 21.2506 1.55473 17.9973C1.55545 13.6359 3.2883 9.45344 6.37223 6.36951C9.45616 3.28558 13.6387 1.55272 18 1.552" fill="#40A3F8"/>
<path d="M29.3769 14.2609L26.9186 12.8419V9.93051C26.9186 8.53519 26.3644 7.19701 25.3777 6.21037C24.3911 5.22372 23.0529 4.66943 21.6576 4.66943C20.2622 4.66943 18.9241 5.22372 17.9374 6.21037C16.9508 7.19701 16.3965 8.53519 16.3965 9.93051V15.178H19.4842V9.98206C19.4842 9.40638 19.7129 8.85427 20.12 8.44719C20.5271 8.04012 21.0792 7.81143 21.6549 7.81143C22.2305 7.81143 22.7826 8.04012 23.1897 8.44719C23.5968 8.85427 23.8255 9.40638 23.8255 9.98206V14.6245L24.7887 15.1672L27.7733 16.8983C28.1582 17.1195 28.466 17.4535 28.6552 17.8551C28.8444 18.2568 28.9059 18.7068 28.8314 19.1445C28.7568 19.5821 28.5499 19.9864 28.2385 20.3028C27.927 20.6192 27.526 20.8325 27.0896 20.9139C27.8932 21.6522 28.4781 22.5975 28.78 23.6462C29.6824 23.2669 30.4608 22.643 31.0275 21.8449C31.5943 21.0468 31.9267 20.1062 31.9874 19.1292C32.048 18.1522 31.8345 17.1777 31.3708 16.3156C30.9072 15.4535 30.2119 14.7381 29.3633 14.2501L29.3769 14.2609Z" fill="#C4B4AE"/>
</svg>
