<svg width="24" height="24" viewBox="0 0 24 24" fill="none" xmlns="http://www.w3.org/2000/svg">
<path d="M12 24C18.6274 24 24 18.6274 24 12C24 5.37258 18.6274 0 12 0C5.37258 0 0 5.37258 0 12C0 18.6274 5.37258 24 12 24Z" fill="#FFCC24"/>
<path d="M12 23C18.0751 23 23 18.0751 23 12C23 5.92487 18.0751 1 12 1C5.92487 1 1 5.92487 1 12C1 18.0751 5.92487 23 12 23Z" fill="#F8E71C"/>
<path fill-rule="evenodd" clip-rule="evenodd" d="M5.33331 9.82345V17.64C6.95865 17.0725 9.1309 16.7887 11.8501 16.7887C14.5692 16.7887 16.7415 17.0725 18.3668 17.64V9.82345L14.7537 13.7317L11.8501 5.66687L9.31054 13.7317L5.33331 9.82345Z" fill="#FF0000"/>
<path d="M11.9 7.80005C12.7285 7.80005 13.4 7.12848 13.4 6.30005C13.4 5.47162 12.7285 4.80005 11.9 4.80005C11.0716 4.80005 10.4 5.47162 10.4 6.30005C10.4 7.12848 11.0716 7.80005 11.9 7.80005Z" fill="#FFD764" stroke="#FF0000"/>
<path d="M18.3333 11.1335C19.1617 11.1335 19.8333 10.462 19.8333 9.63355C19.8333 8.80512 19.1617 8.13354 18.3333 8.13354C17.5049 8.13354 16.8333 8.80512 16.8333 9.63355C16.8333 10.462 17.5049 11.1335 18.3333 11.1335Z" fill="#FFD764" stroke="#FF0000"/>
<path d="M5 11.1335C5.82843 11.1335 6.5 10.462 6.5 9.63355C6.5 8.80512 5.82843 8.13354 5 8.13354C4.17157 8.13354 3.5 8.80512 3.5 9.63355C3.5 10.462 4.17157 11.1335 5 11.1335Z" fill="#FFD764" stroke="#FF0000"/>
<ellipse cx="11.9" cy="17.75" rx="6.5" ry="1.25" fill="#FF0000" fill-opacity="0.35"/>
</svg>
