<svg width="44" height="44" viewBox="0 0 44 44" fill="none" xmlns="http://www.w3.org/2000/svg">
<path d="M16.4987 38.5H32.9987C34.5204 38.5 35.822 37.5833 36.372 36.2633L41.9087 23.3383C42.0737 22.9166 42.1654 22.4766 42.1654 22V18.3333C42.1654 16.3166 40.5154 14.6666 38.4987 14.6666H26.9304L28.672 6.28831L28.727 5.70165C28.727 4.94998 28.4154 4.25331 27.9204 3.75831L25.977 1.83331L13.8954 13.915C13.2354 14.575 12.832 15.4916 12.832 16.5V34.8333C12.832 36.85 14.482 38.5 16.4987 38.5ZM16.4987 16.5L24.4554 8.54331L21.9987 18.3333H38.4987V22L32.9987 34.8333H16.4987V16.5ZM1.83203 16.5H9.16536V38.5H1.83203V16.5Z" fill="#072B4F"/>
</svg>
