<svg width="218" height="24" viewBox="0 0 218 24" fill="none" xmlns="http://www.w3.org/2000/svg">
<path d="M3.46871 15.66C3.08871 16.06 2.89871 16.76 2.89871 17.76C2.89871 18.76 3.08871 19.46 3.46871 19.86C3.73538 20.14 4.07871 20.28 4.49871 20.28C4.91871 20.28 5.26204 20.14 5.52871 19.86C5.90871 19.46 6.09871 18.76 6.09871 17.76C6.09871 16.76 5.90871 16.06 5.52871 15.66C5.26204 15.38 4.91871 15.24 4.49871 15.24C4.07871 15.24 3.73538 15.38 3.46871 15.66ZM2.50871 20.11C2.12204 19.5367 1.92871 18.7533 1.92871 17.76C1.92871 16.7667 2.12204 15.9833 2.50871 15.41C2.96871 14.7167 3.63204 14.37 4.49871 14.37C5.36538 14.37 6.02871 14.7167 6.48871 15.41C6.87538 15.9833 7.06871 16.7667 7.06871 17.76C7.06871 18.7533 6.87538 19.5367 6.48871 20.11C6.02871 20.8033 5.36538 21.15 4.49871 21.15C3.63204 21.15 2.96871 20.8033 2.50871 20.11Z" fill="#072B4F"/>
<path d="M19.41 16.85L18.43 16.73C18.4233 16.67 18.42 16.5833 18.42 16.47C18.42 15.89 18.6233 15.3967 19.03 14.99C19.4367 14.5767 19.98 14.37 20.66 14.37C21.3333 14.37 21.8667 14.5633 22.26 14.95C22.6533 15.33 22.85 15.8 22.85 16.36C22.85 17.18 22.4433 17.8467 21.63 18.36L20.35 19.18C19.89 19.4733 19.6267 19.7767 19.56 20.09H22.89V21H18.35C18.3633 20.4533 18.4867 19.9733 18.72 19.56C18.96 19.1467 19.35 18.7667 19.89 18.42L20.97 17.72C21.5633 17.34 21.86 16.89 21.86 16.37C21.86 16.05 21.7533 15.78 21.54 15.56C21.3267 15.34 21.0267 15.23 20.64 15.23C20.2333 15.23 19.9233 15.3533 19.71 15.6C19.4967 15.8467 19.39 16.1667 19.39 16.56C19.39 16.62 19.3967 16.7167 19.41 16.85Z" fill="#072B4F"/>
<path d="M31.477 21H28.013V15.328H28.797V20.264H31.477V21ZM33.1545 16.52C32.7545 16.9093 32.5545 17.456 32.5545 18.16C32.5545 18.864 32.7545 19.4133 33.1545 19.808C33.5545 20.2027 34.0372 20.4 34.6025 20.4C35.1679 20.4 35.6505 20.2027 36.0505 19.808C36.4505 19.4133 36.6505 18.864 36.6505 18.16C36.6505 17.456 36.4505 16.9093 36.0505 16.52C35.6505 16.1253 35.1679 15.928 34.6025 15.928C34.0372 15.928 33.5545 16.1253 33.1545 16.52ZM31.7545 18.16C31.7545 17.7013 31.8345 17.2827 31.9945 16.904C32.1599 16.5253 32.3759 16.216 32.6425 15.976C32.9145 15.7307 33.2185 15.5413 33.5545 15.408C33.8905 15.2747 34.2399 15.208 34.6025 15.208C34.9652 15.208 35.3145 15.2747 35.6505 15.408C35.9865 15.5413 36.2879 15.7307 36.5545 15.976C36.8265 16.216 37.0425 16.5253 37.2025 16.904C37.3679 17.2827 37.4505 17.7013 37.4505 18.16C37.4505 18.768 37.3092 19.3013 37.0265 19.76C36.7492 20.2187 36.3972 20.56 35.9705 20.784C35.5439 21.008 35.0879 21.12 34.6025 21.12C34.1172 21.12 33.6612 21.008 33.2345 20.784C32.8079 20.56 32.4532 20.2187 32.1705 19.76C31.8932 19.3013 31.7545 18.768 31.7545 18.16ZM43.5323 19.816L44.7563 15.328H45.5643L43.9483 21H43.1403L41.6603 16.4L40.1963 21H39.4123L37.7723 15.328H38.5803L39.8283 19.768L41.2523 15.328H42.0763L43.5323 19.816Z" fill="#516B84"/>
<path d="M77.25 17.99L76.77 17.18L78.68 15.42H75.58V14.52H79.98V15.4L78.13 17.11C78.6567 17.11 79.12 17.2833 79.52 17.63C79.9267 17.9767 80.13 18.46 80.13 19.08C80.13 19.6533 79.92 20.1433 79.5 20.55C79.08 20.9567 78.5067 21.16 77.78 21.16C77.0667 21.16 76.4933 20.9633 76.06 20.57C75.6333 20.17 75.4033 19.6867 75.37 19.12L76.33 18.9C76.35 19.32 76.4933 19.66 76.76 19.92C77.0333 20.1733 77.37 20.3 77.77 20.3C78.1967 20.3 78.53 20.1867 78.77 19.96C79.0167 19.7267 79.14 19.44 79.14 19.1C79.14 18.7067 79.01 18.4067 78.75 18.2C78.49 17.9933 78.18 17.89 77.82 17.89C77.6267 17.89 77.4367 17.9233 77.25 17.99ZM82.7773 17.99L82.2973 17.18L84.2073 15.42H81.1073V14.52H85.5073V15.4L83.6573 17.11C84.184 17.11 84.6473 17.2833 85.0473 17.63C85.454 17.9767 85.6573 18.46 85.6573 19.08C85.6573 19.6533 85.4473 20.1433 85.0273 20.55C84.6073 20.9567 84.034 21.16 83.3073 21.16C82.594 21.16 82.0207 20.9633 81.5873 20.57C81.1607 20.17 80.9307 19.6867 80.8973 19.12L81.8573 18.9C81.8773 19.32 82.0207 19.66 82.2873 19.92C82.5607 20.1733 82.8973 20.3 83.2973 20.3C83.724 20.3 84.0573 20.1867 84.2973 19.96C84.544 19.7267 84.6673 19.44 84.6673 19.1C84.6673 18.7067 84.5373 18.4067 84.2773 18.2C84.0173 17.9933 83.7073 17.89 83.3473 17.89C83.154 17.89 82.964 17.9233 82.7773 17.99Z" fill="#072B4F"/>
<path d="M96.9027 21H96.1267V16.584L94.1907 21H93.4707L91.5507 16.584V21H90.7747V15.328H91.8387L93.8387 19.944L95.8547 15.328H96.9027V21ZM101.793 21H98.345V15.328H101.793V16.056H99.129V17.8H101.545V18.536H99.129V20.272H101.793V21ZM103.777 20.304H104.937C105.492 20.304 105.951 20.12 106.313 19.752C106.681 19.384 106.865 18.8587 106.865 18.176C106.865 17.488 106.684 16.9573 106.321 16.584C105.964 16.2107 105.508 16.024 104.953 16.024H103.777V20.304ZM104.961 21H102.993V15.328H104.977C105.74 15.328 106.38 15.5813 106.897 16.088C107.415 16.5893 107.673 17.2853 107.673 18.176C107.673 19.0613 107.412 19.7547 106.889 20.256C106.367 20.752 105.724 21 104.961 21ZM109.551 21H108.751V15.328H109.551V21ZM114.417 20.576C114.039 20.9387 113.551 21.12 112.953 21.12C112.356 21.12 111.865 20.9387 111.481 20.576C111.103 20.2133 110.913 19.7093 110.913 19.064V15.328H111.689V19.04C111.689 19.472 111.799 19.8053 112.017 20.04C112.241 20.2747 112.553 20.392 112.953 20.392C113.353 20.392 113.663 20.2747 113.881 20.04C114.1 19.8053 114.209 19.472 114.209 19.04V15.328H114.993V19.064C114.993 19.7093 114.801 20.2133 114.417 20.576ZM122.481 21H121.705V16.584L119.769 21H119.049L117.129 16.584V21H116.353V15.328H117.417L119.417 19.944L121.433 15.328H122.481V21Z" fill="#516B84"/>
<path d="M131.35 19.24L132.29 18.96C132.317 19.36 132.463 19.6833 132.73 19.93C133.003 20.1767 133.343 20.3 133.75 20.3C134.143 20.3 134.473 20.18 134.74 19.94C135.007 19.7 135.14 19.3833 135.14 18.99C135.14 18.5633 135.007 18.2333 134.74 18C134.473 17.7667 134.14 17.65 133.74 17.65C133.253 17.65 132.86 17.8067 132.56 18.12C132.467 18.0867 132.313 18.0267 132.1 17.94C131.887 17.8533 131.72 17.7867 131.6 17.74L132.44 14.52H135.86V15.42H133.09L132.61 17.28C132.897 16.96 133.337 16.8 133.93 16.8C134.577 16.8 135.103 16.9933 135.51 17.38C135.923 17.7667 136.13 18.29 136.13 18.95C136.13 19.5767 135.91 20.1033 135.47 20.53C135.03 20.95 134.457 21.16 133.75 21.16C133.083 21.16 132.527 20.9733 132.08 20.6C131.64 20.2267 131.397 19.7733 131.35 19.24ZM139.259 21H138.299V16.43H136.729V15.74C137.169 15.7333 137.539 15.62 137.839 15.4C138.139 15.1733 138.325 14.88 138.399 14.52H139.259V21Z" fill="#072B4F"/>
<path d="M149.188 21H148.404V18.48H145.508V21H144.724V15.328H145.508V17.752H148.404V15.328H149.188V21ZM151.43 21H150.63V15.328H151.43V21ZM157.784 21H157.152L157.08 20.2C156.942 20.4507 156.715 20.6667 156.4 20.848C156.086 21.0293 155.707 21.12 155.264 21.12C154.779 21.12 154.331 21.0107 153.92 20.792C153.51 20.568 153.171 20.2267 152.904 19.768C152.643 19.3093 152.512 18.7733 152.512 18.16C152.512 17.5467 152.651 17.0107 152.928 16.552C153.206 16.0933 153.552 15.7547 153.968 15.536C154.39 15.3173 154.84 15.208 155.32 15.208C155.928 15.208 156.456 15.3653 156.904 15.68C157.358 15.9893 157.667 16.4027 157.832 16.92L157.12 17.224C156.992 16.8133 156.768 16.496 156.448 16.272C156.134 16.0427 155.758 15.928 155.32 15.928C154.771 15.928 154.299 16.1227 153.904 16.512C153.51 16.9013 153.312 17.4507 153.312 18.16C153.312 18.8747 153.504 19.4293 153.888 19.824C154.278 20.2133 154.744 20.408 155.288 20.408C155.587 20.408 155.851 20.36 156.08 20.264C156.315 20.168 156.496 20.0427 156.624 19.888C156.758 19.728 156.856 19.568 156.92 19.408C156.99 19.248 157.03 19.088 157.04 18.928H155.072V18.224H157.784V21ZM163.454 21H162.67V18.48H159.774V21H158.99V15.328H159.774V17.752H162.67V15.328H163.454V21Z" fill="#516B84"/>
<path d="M204.78 21H203.82V16.43H202.25V15.74C202.69 15.7333 203.06 15.62 203.36 15.4C203.66 15.1733 203.847 14.88 203.92 14.52H204.78V21ZM207.614 15.66C207.234 16.06 207.044 16.76 207.044 17.76C207.044 18.76 207.234 19.46 207.614 19.86C207.881 20.14 208.224 20.28 208.644 20.28C209.064 20.28 209.408 20.14 209.674 19.86C210.054 19.46 210.244 18.76 210.244 17.76C210.244 16.76 210.054 16.06 209.674 15.66C209.408 15.38 209.064 15.24 208.644 15.24C208.224 15.24 207.881 15.38 207.614 15.66ZM206.654 20.11C206.268 19.5367 206.074 18.7533 206.074 17.76C206.074 16.7667 206.268 15.9833 206.654 15.41C207.114 14.7167 207.778 14.37 208.644 14.37C209.511 14.37 210.174 14.7167 210.634 15.41C211.021 15.9833 211.214 16.7667 211.214 17.76C211.214 18.7533 211.021 19.5367 210.634 20.11C210.174 20.8033 209.511 21.15 208.644 21.15C207.778 21.15 207.114 20.8033 206.654 20.11ZM214.468 17.28C214.815 17.2733 215.101 17.1733 215.328 16.98C215.555 16.7867 215.668 16.5333 215.668 16.22C215.668 15.9267 215.558 15.68 215.338 15.48C215.118 15.28 214.828 15.18 214.468 15.18C214.108 15.18 213.818 15.28 213.598 15.48C213.378 15.68 213.268 15.9267 213.268 16.22C213.268 16.5333 213.381 16.7867 213.608 16.98C213.835 17.1733 214.121 17.2733 214.468 17.28ZM213.468 19.99C213.715 20.1967 214.048 20.3 214.468 20.3C214.888 20.3 215.218 20.1967 215.458 19.99C215.705 19.7833 215.828 19.5233 215.828 19.21C215.828 18.89 215.705 18.6267 215.458 18.42C215.218 18.2067 214.888 18.1 214.468 18.1C214.048 18.1 213.715 18.2067 213.468 18.42C213.228 18.6267 213.108 18.89 213.108 19.21C213.108 19.5233 213.228 19.7833 213.468 19.99ZM216.188 20.63C215.768 20.9767 215.195 21.15 214.468 21.15C213.741 21.15 213.168 20.9767 212.748 20.63C212.328 20.2767 212.118 19.83 212.118 19.29C212.118 18.91 212.231 18.58 212.458 18.3C212.691 18.0133 212.988 17.81 213.348 17.69C213.041 17.5767 212.788 17.3833 212.588 17.11C212.388 16.83 212.288 16.5167 212.288 16.17C212.288 15.6433 212.495 15.2133 212.908 14.88C213.321 14.54 213.841 14.37 214.468 14.37C215.095 14.37 215.615 14.54 216.028 14.88C216.441 15.2133 216.648 15.6433 216.648 16.17C216.648 16.51 216.548 16.82 216.348 17.1C216.148 17.38 215.895 17.5767 215.588 17.69C215.948 17.8033 216.241 18.0033 216.468 18.29C216.701 18.5767 216.818 18.91 216.818 19.29C216.818 19.83 216.608 20.2767 216.188 20.63Z" fill="#072B4F"/>
<rect y="6" width="216" height="4" fill="#EB5757"/>
<rect y="6" width="129" height="4" fill="#F9982C"/>
<rect y="6" width="73" height="4" fill="#22A1D1"/>
<rect y="6" width="16" height="4" fill="#F8E71C"/>
<rect y="1" width="1" height="14" fill="#B5BFCA"/>
<rect x="16" y="1" width="1" height="14" fill="#B5BFCA"/>
<rect x="73" y="1" width="1" height="14" fill="#B5BFCA"/>
<rect x="129" y="1" width="1" height="14" fill="#B5BFCA"/>
<rect width="1" height="14" transform="matrix(-1 0 0 1 216 0)" fill="#B5BFCA"/>
</svg>
