<svg width="41" height="40" viewBox="0 0 41 40" fill="none" xmlns="http://www.w3.org/2000/svg">
<rect x="30.2914" y="0.5" width="9.38961" height="9.38961" rx="4.69481" fill="#F8E71C" stroke="#072B4F"/>
<path d="M34.486 4.816L33.438 4.784C33.4114 4.66667 33.398 4.54667 33.398 4.424C33.398 3.944 33.5687 3.536 33.91 3.2C34.2514 2.85867 34.7127 2.688 35.294 2.688C35.8594 2.688 36.3127 2.85067 36.654 3.176C36.9954 3.496 37.166 3.89067 37.166 4.36C37.166 5.02133 36.83 5.55733 36.158 5.968L35.158 6.576C34.9234 6.72533 34.774 6.88267 34.71 7.048H37.198V8H33.358C33.3634 7.51467 33.4567 7.09067 33.638 6.728C33.8247 6.36533 34.1394 6.05067 34.582 5.784L35.438 5.272C35.8487 5.02667 36.054 4.728 36.054 4.376C36.054 4.17867 35.9847 4.01067 35.846 3.872C35.7127 3.73333 35.5207 3.664 35.27 3.664C35.0034 3.664 34.798 3.744 34.654 3.904C34.5154 4.064 34.446 4.272 34.446 4.528C34.446 4.624 34.4594 4.72 34.486 4.816Z" fill="#072B4F"/>
<circle cx="18.1816" cy="21.5648" r="18.1818" fill="#F8E71C"/>
<path d="M0.778622 22.3228L0.395246 22.6433L0.778622 22.3228C0.407678 21.8791 0.407109 21.2344 0.777266 20.7901L3.57036 17.4375C3.94174 16.9918 4.1217 16.4173 4.07084 15.8394L3.68309 11.434C3.63098 10.8419 4.02207 10.3006 4.60258 10.1638L8.58294 9.22634C9.17966 9.08579 9.69076 8.70278 9.99274 8.16943L12.0752 4.49146C12.3804 3.95242 13.0473 3.73422 13.6133 3.98933L17.278 5.64124C17.8532 5.90052 18.5121 5.90052 19.0873 5.64124L22.7521 3.98933C23.318 3.73422 23.985 3.95242 24.2902 4.49146L26.374 8.17185C26.6749 8.70337 27.1836 9.08567 27.7779 9.22737L31.7663 10.1784C32.3452 10.3164 32.7346 10.8569 32.6826 11.4477L32.2946 15.8555C32.2437 16.4348 32.4246 17.0105 32.7976 17.4566L35.5851 20.7904C35.9565 21.2347 35.9565 21.8805 35.5851 22.3247L32.7976 25.6585C32.4246 26.1047 32.2437 26.6804 32.2946 27.2596L32.6826 31.6674C32.7346 32.2583 32.3452 32.7987 31.7663 32.9368L27.7779 33.8878C27.1836 34.0295 26.6749 34.4118 26.374 34.9433L24.2902 38.6237C23.985 39.1627 23.318 39.3809 22.7521 39.1258L19.0897 37.475C18.5127 37.2149 17.8516 37.2157 17.2752 37.4773L13.6141 39.1389C13.0477 39.396 12.379 39.1781 12.0732 38.638L9.99136 34.9611C9.69042 34.4296 9.18175 34.0473 8.58746 33.9056L4.59866 32.9545C4.01986 32.8165 3.63051 32.2762 3.68237 31.6855L4.07088 27.2593C4.12171 26.6802 3.94078 26.1047 3.56787 25.6587L0.778622 22.3228Z" fill="#F857CA" stroke="#A02994"/>
<path fill-rule="evenodd" clip-rule="evenodd" d="M25.8637 27.8905C26.1887 27.8905 26.4546 28.1675 26.4546 28.506V29.7371C26.4546 30.0756 26.1887 30.3526 25.8637 30.3526H10.5C10.175 30.3526 9.90913 30.0756 9.90913 29.7371V28.506C9.90913 28.1675 10.175 27.8905 10.5 27.8905H25.8637ZM28.2273 15.5799C29.206 15.5799 30 16.407 30 17.4265C30 18.446 29.206 19.2731 28.2273 19.2731C28.1313 19.2731 28.0353 19.2577 27.9429 19.2423L25.2728 26.6594H11.091L8.42079 19.2423C8.32846 19.2577 8.23242 19.2731 8.13641 19.2731C7.15772 19.2731 6.36368 18.446 6.36368 17.4265C6.36368 16.407 7.16139 15.5799 8.14009 15.5799C9.11878 15.5799 9.91281 16.407 9.91281 17.4265C9.91281 17.6996 9.85005 17.9574 9.75033 18.1882L12.4205 19.8578C12.9855 20.2118 13.7242 20.0117 14.0529 19.4115L17.0628 13.9256C16.6677 13.5871 16.4091 13.0793 16.4091 12.5022C16.4091 11.4828 17.2032 10.6556 18.1819 10.6556C19.1606 10.6556 19.9546 11.4828 19.9546 12.5022C19.9546 13.0793 19.6961 13.5871 19.3009 13.9256L22.3108 19.4115C22.6395 20.0117 23.3745 20.2118 23.9432 19.8578L26.6171 18.1882C26.5137 17.9535 26.4546 17.6996 26.4546 17.4265C26.4546 16.407 27.2486 15.5799 28.2273 15.5799Z" fill="#072B4F"/>
</svg>
