<svg width="48" height="40" viewBox="0 0 48 40" fill="none" xmlns="http://www.w3.org/2000/svg">
<circle cx="18.1817" cy="21.8182" r="18.1818" fill="#F8E71C"/>
<path d="M0.778591 22.5762L0.395215 22.8968L0.778591 22.5762C0.407648 22.1326 0.407078 21.4878 0.777235 21.0435L3.57033 17.691C3.94171 17.2452 4.12167 16.6707 4.07081 16.0929L3.68306 11.6874C3.63095 11.0953 4.02204 10.554 4.60255 10.4173L8.5829 9.47976C9.17963 9.33921 9.69073 8.9562 9.99271 8.42284L12.0751 4.74488C12.3803 4.20584 13.0473 3.98764 13.6132 4.24274L17.2779 5.89466C17.8531 6.15394 18.5121 6.15394 19.0873 5.89466L22.752 4.24274C23.318 3.98764 23.9849 4.20584 24.2901 4.74488L26.3739 8.42527C26.6749 8.95679 27.1835 9.33909 27.7778 9.48079L31.7663 10.4318C32.3452 10.5698 32.7346 11.1103 32.6826 11.7011L32.2946 16.1089C32.2436 16.6882 32.4246 17.2639 32.7976 17.71L35.585 21.0438C35.9565 21.4881 35.9565 22.1339 35.585 22.5782L32.7976 25.912C32.4246 26.3581 32.2436 26.9338 32.2946 27.513L32.6826 31.9208C32.7346 32.5117 32.3452 33.0521 31.7663 33.1902L27.7778 34.1412C27.1835 34.2829 26.6749 34.6652 26.3739 35.1967L24.2901 38.8771C23.9849 39.4161 23.318 39.6343 22.752 39.3792L19.0897 37.7284C18.5127 37.4683 17.8515 37.4692 17.2752 37.7307L13.6141 39.3923C13.0477 39.6494 12.3789 39.4315 12.0732 38.8915L9.99133 35.2146C9.69039 34.683 9.18172 34.3007 8.58743 34.159L4.59863 33.2079C4.01983 33.0699 3.63048 32.5296 3.68234 31.9389L4.07085 27.5127C4.12168 26.9336 3.94075 26.3581 3.56784 25.9121L0.778591 22.5762Z" fill="#1CBDF4" stroke="#2969A0"/>
<path d="M18.1818 9.09094L21.0393 17.8853L30.2862 17.8853L22.8053 23.3205L25.6627 32.1148L18.1818 26.6796L10.7009 32.1148L13.5584 23.3205L6.07748 17.8853L15.3244 17.8853L18.1818 9.09094Z" fill="#072B4F"/>
<rect x="27.7726" y="0.5" width="19" height="9.38961" rx="4.69481" fill="#F8E71C" stroke="#072B4F"/>
<path d="M33.0904 8H31.9944V4.528H30.7464V3.784C31.1198 3.77867 31.4318 3.68533 31.6824 3.504C31.9331 3.31733 32.0851 3.08533 32.1384 2.808H33.0904V8ZM35.4683 4.088C35.2816 4.38133 35.1883 4.82133 35.1883 5.408C35.1883 5.99467 35.2816 6.43467 35.4683 6.728C35.6443 7.01067 35.9056 7.152 36.2523 7.152C36.5936 7.152 36.8523 7.01067 37.0283 6.728C37.2203 6.44 37.3163 6 37.3163 5.408C37.3163 4.816 37.2203 4.376 37.0283 4.088C36.8523 3.80533 36.5936 3.664 36.2523 3.664C35.9056 3.664 35.6443 3.80533 35.4683 4.088ZM34.5403 7.256C34.2363 6.792 34.0843 6.176 34.0843 5.408C34.0843 4.64 34.2363 4.024 34.5403 3.56C34.9296 2.97867 35.5003 2.688 36.2523 2.688C37.0043 2.688 37.5723 2.97867 37.9563 3.56C38.2656 4.02933 38.4203 4.64533 38.4203 5.408C38.4203 6.17067 38.2656 6.78667 37.9563 7.256C37.5723 7.83733 37.0043 8.128 36.2523 8.128C35.5003 8.128 34.9296 7.83733 34.5403 7.256ZM40.4448 4.088C40.2582 4.38133 40.1648 4.82133 40.1648 5.408C40.1648 5.99467 40.2582 6.43467 40.4448 6.728C40.6208 7.01067 40.8822 7.152 41.2288 7.152C41.5702 7.152 41.8288 7.01067 42.0048 6.728C42.1968 6.44 42.2928 6 42.2928 5.408C42.2928 4.816 42.1968 4.376 42.0048 4.088C41.8288 3.80533 41.5702 3.664 41.2288 3.664C40.8822 3.664 40.6208 3.80533 40.4448 4.088ZM39.5168 7.256C39.2128 6.792 39.0608 6.176 39.0608 5.408C39.0608 4.64 39.2128 4.024 39.5168 3.56C39.9062 2.97867 40.4768 2.688 41.2288 2.688C41.9808 2.688 42.5488 2.97867 42.9328 3.56C43.2422 4.02933 43.3968 4.64533 43.3968 5.408C43.3968 6.17067 43.2422 6.78667 42.9328 7.256C42.5488 7.83733 41.9808 8.128 41.2288 8.128C40.4768 8.128 39.9062 7.83733 39.5168 7.256Z" fill="#072B4F"/>
</svg>
