<svg width="44" height="44" viewBox="0 0 44 44" fill="none" xmlns="http://www.w3.org/2000/svg">
<path d="M21.134 3.5C21.5189 2.83333 22.4811 2.83333 22.866 3.5L38.4545 30.5C38.8394 31.1667 38.3583 32 37.5885 32H6.41154C5.64174 32 5.16062 31.1667 5.54552 30.5L21.134 3.5Z" stroke="#072B4F" stroke-width="2"/>
<path d="M24.4202 11.984L23.6522 23.816H21.3242L20.5562 11.984H24.4202ZM21.1562 28.64C20.7882 28.272 20.6042 27.824 20.6042 27.296C20.6042 26.768 20.7882 26.32 21.1562 25.952C21.5242 25.568 21.9642 25.376 22.4762 25.376C23.0042 25.376 23.4522 25.568 23.8202 25.952C24.2042 26.32 24.3962 26.768 24.3962 27.296C24.3962 27.824 24.2042 28.272 23.8202 28.64C23.4522 29.008 23.0042 29.192 22.4762 29.192C21.9642 29.192 21.5242 29.008 21.1562 28.64Z" fill="#072B4F"/>
</svg>
